<?xml version="1.0" encoding="UTF-8"?>
<svg width="782px" height="272px" viewBox="0 0 782 272" version="1.1" xmlns="http://www.w3.org/2000/svg" xmlns:xlink="http://www.w3.org/1999/xlink">
    <!-- Generator: Sketch 51 (57462) - http://www.bohemiancoding.com/sketch -->
    <title>Group 21</title>
    <desc>Created with Sketch.</desc>
    <defs>
        <linearGradient x1="-82.6367258%" y1="-92.819878%" x2="103.767353%" y2="106.041826%" id="linearGradient-1">
            <stop stop-color="#F9A03C" offset="0%"></stop>
            <stop stop-color="#F7974E" offset="100%"></stop>
        </linearGradient>
        <linearGradient x1="-258.923825%" y1="-248.970263%" x2="97.6202479%" y2="98.7684937%" id="linearGradient-2">
            <stop stop-color="#F9A03C" offset="0%"></stop>
            <stop stop-color="#F7974E" offset="100%"></stop>
        </linearGradient>
        <linearGradient x1="-223.162629%" y1="-261.967947%" x2="94.0283377%" y2="101.690818%" id="linearGradient-3">
            <stop stop-color="#F9A03C" offset="0%"></stop>
            <stop stop-color="#F7974E" offset="100%"></stop>
        </linearGradient>
    </defs>
    <g id="Home-Page" stroke="none" stroke-width="1" fill="none" fill-rule="evenodd">
        <g id="Home-Page---Desktop" transform="translate(-121.000000, -2555.000000)">
            <rect fill="#FFFFFF" x="0" y="0" width="1024" height="3513"></rect>
            <g id="Group-21" transform="translate(122.000000, 2556.000000)">
                <circle id="Oval-9" stroke="#FABE9E" stroke-width="2" cx="145" cy="190" r="42"></circle>
                <circle id="Oval-9" stroke="#FABE9E" stroke-width="2" cx="32.5" cy="132.5" r="32.5"></circle>
                <circle id="Oval-9" stroke="#FBC8AD" stroke-width="2" cx="249.5" cy="103.5" r="33.5"></circle>
                <circle id="Oval-9" stroke="#FBC8AD" stroke-width="2" cx="153.5" cy="45.5" r="24.5"></circle>
                <path d="M28.6666667,204.807692 L51.3333333,248.192308" id="Line-13" stroke="#F4F4F4" stroke-linecap="square" stroke-dasharray="2"></path>
                <g id="download-(30)" transform="translate(114.000000, 164.000000)" fill="#E48452" fill-rule="nonzero">
                    <path d="M51.7048763,18.0582564 C51.0525124,17.8346584 50.3765299,17.6230985 49.6805108,17.4230195 C49.7949097,16.9581005 49.8999057,16.4992007 49.9932606,16.0481033 C51.5256665,8.64094459 50.523726,2.67368588 47.1023975,0.7090104 C43.8217726,-1.17485322 38.4565611,0.789376405 33.0379557,5.48515813 C32.5168928,5.93670132 31.9943746,6.41477311 31.4720809,6.91580657 C31.124071,6.58431077 30.7766215,6.26396147 30.4300673,5.9575452 C24.7512104,0.936509687 19.059033,-1.17942328 15.6410626,0.790936912 C12.363572,2.68026232 11.3929736,8.29005395 12.7723628,15.3098731 C12.9055668,15.9879124 13.06127,16.6803307 13.2373456,17.3843413 C12.4317411,17.6120635 11.6540087,17.8548334 10.9098572,18.113097 C4.25200672,20.4245389 0,24.0471392 0,27.8047231 C0,31.6855873 4.56453245,35.5781548 11.499201,37.9384179 C12.0464569,38.1246754 12.614309,38.3007896 13.1995112,38.4679865 C13.0095555,39.2294015 12.8443378,39.9755455 12.7056489,40.7032982 C11.3903991,47.6012866 12.4175252,53.0785465 15.6862848,54.9559454 C19.062615,56.8947613 24.7290468,54.9018851 30.2467157,50.0990974 C30.682819,49.7194488 31.1204892,49.3168387 31.5589431,48.8948338 C32.1272433,49.4397841 32.6946473,49.9555309 33.2590296,50.4392873 C38.6035332,55.0190344 43.8821062,56.8683443 47.1478434,54.9857068 C50.5208156,53.0413173 51.6170064,47.1574343 50.1938499,39.9987305 C50.0851598,39.4519963 49.9586721,38.8934469 49.8166253,38.3249777 C50.2145583,38.2078279 50.6052154,38.086889 50.9861343,37.961157 C58.1953823,35.5826133 62.8859545,31.737418 62.8859545,27.8047231 C62.8859545,24.0335406 58.4968259,20.3865295 51.7048763,18.0582564 Z M50.1412401,35.4218815 C49.7973723,35.5352408 49.4445495,35.6448107 49.0850106,35.7510363 C48.2891446,33.2420792 47.2150053,30.5741733 45.900539,27.8177647 C47.1548957,25.1270084 48.1875064,22.4932109 48.9610972,20.0005275 C49.6043943,20.1858932 50.2287742,20.3814021 50.8304311,20.5877232 C56.6497676,22.5826055 60.1994869,25.5320709 60.1994869,27.8047231 C60.1994869,30.225512 56.3658977,33.3680341 50.1412401,35.4218815 Z M47.5584253,40.5182667 C48.1877302,43.6837507 48.2776149,46.5457164 47.8607647,48.7830344 C47.4862266,50.7934105 46.7330081,52.1337725 45.8016993,52.6705863 C43.8198695,53.8128757 39.5817433,52.3280555 35.0110541,48.4114115 C34.487081,47.9624318 33.959302,47.4830226 33.429844,46.9756353 C35.2017933,45.0458483 36.9727353,42.8024001 38.7011415,40.3108311 C41.7412153,40.0422017 44.6133854,39.6030307 47.2180275,39.0034626 C47.3463063,39.5187636 47.4602574,40.0241441 47.5584253,40.5182667 Z M21.4392434,52.4731825 C19.5029718,53.1541199 17.9608274,53.1736261 17.0286231,52.6383729 C15.0450025,51.499093 14.2203689,47.1013676 15.3452153,41.2022138 C15.4740538,40.5266266 15.6274064,39.8326482 15.8041535,39.1232872 C18.3802521,39.6905307 21.2313779,40.098714 24.2787277,40.3447164 C26.0187753,42.7827826 27.840872,45.0237786 29.6770726,46.9860018 C29.2758934,47.3716692 28.8762811,47.738834 28.478908,48.08482 C26.0390356,50.2085556 23.5940144,51.7153342 21.4392434,52.4731825 Z M12.3680494,35.4070564 C9.30167046,34.3634133 6.76933888,33.0070003 5.03354494,31.5268615 C3.47382661,30.1967542 2.68635575,28.8762329 2.68635575,27.8047231 C2.68635575,25.5244913 6.10029651,22.6160449 11.7941528,20.6392198 C12.4850227,20.3993479 13.2082422,20.1732977 13.9587741,19.9609576 C14.7456853,22.5099306 15.7779605,25.1749382 17.0236979,27.8698184 C15.7618417,30.6047145 14.7149028,33.3121906 13.9202681,35.8910357 C13.3852133,35.7378834 12.866837,35.5767057 12.3680494,35.4070564 Z M15.4087951,14.7961327 C14.2269731,8.78172444 15.0118694,4.24466832 16.9869829,3.10616864 C19.0908229,1.89332204 23.7430012,3.62258421 28.6462527,7.95800082 C28.9596738,8.2351019 29.2743264,8.52513283 29.5898743,8.82519563 C27.7627406,10.7788361 25.9573225,13.0030012 24.2327222,15.426688 C21.2751449,15.6996649 18.4440557,16.1381668 15.8410925,16.7253624 C15.6774418,16.0698389 15.5324845,15.4257963 15.4087951,14.7961327 Z M42.5349545,21.4660644 C41.9127016,20.395781 41.2738818,19.3508002 40.6226376,18.3343543 C42.629093,18.5869331 44.5514842,18.9222187 46.3567906,19.33252 C45.8147955,21.062228 45.1392613,22.8707416 44.3440667,24.7247327 C43.7736402,23.6463124 43.1703043,22.558975 42.5349545,21.4660644 Z M31.4729761,10.7370369 C32.7121094,12.0738321 33.9530335,13.5663435 35.1735856,15.1857015 C33.9436309,15.1278514 32.6984531,15.0977559 31.4429775,15.0977559 C30.1993667,15.0977559 28.9633679,15.1271826 27.7410248,15.1840296 C28.962808,13.5797192 30.214478,12.0892142 31.4729761,10.7370369 Z M20.3401423,21.4845675 C19.7185608,22.5578604 19.1264186,23.6392902 18.5649468,24.7227264 C17.782625,22.8752002 17.1133588,21.0584382 16.5666626,19.304208 C18.3608872,18.9043843 20.2742119,18.5774586 22.2679067,18.3296728 C21.6074834,19.3554817 20.9634027,20.4081536 20.3401423,21.4843446 L20.3401423,21.4845675 Z M22.3253299,37.470601 C20.2654808,37.2417642 18.3233886,36.9316699 16.5296117,36.542881 C17.0850389,34.7573291 17.7690808,32.9017776 18.5679691,31.0144584 C19.130896,32.0971145 19.7253889,33.1789902 20.3507762,34.2546239 L20.3508881,34.2546239 C20.9879168,35.3504326 21.6478923,36.4238366 22.3253299,37.470601 Z M31.5473019,45.0610075 C30.2740281,43.6930023 29.0040005,42.1797587 27.763636,40.5520407 C28.967733,40.5990787 30.1953369,40.6231553 31.4429775,40.6231553 C32.7247583,40.6231553 33.9918754,40.5943973 35.2390683,40.5391107 C34.0144864,42.1961442 32.7780399,43.7117284 31.5473019,45.0610075 Z M44.3697001,30.9182647 C45.2102286,32.8259817 45.9187846,34.6718359 46.4813756,36.4269579 C44.6580477,36.8411602 42.6894267,37.1747741 40.6152497,37.4226715 C41.2680614,36.3925151 41.9124776,35.3295883 42.5457004,34.2362319 C43.1863112,33.1300572 43.7945722,32.0222104 44.3697001,30.9182647 Z M40.2186597,32.8997713 C39.2356365,34.5970429 38.2264201,36.2172926 37.2018686,37.7466992 C35.3357807,37.8795647 33.4079044,37.9480041 31.4429775,37.9480041 C29.4859978,37.9480041 27.5824112,37.8874787 25.7493451,37.7689918 C24.6834888,36.2195222 23.6523331,34.5944796 22.6755782,32.914373 L22.675802,32.914373 C21.7016217,31.238837 20.8050131,29.5491445 19.9925805,27.868927 C20.8047892,26.1848078 21.6990471,24.4932207 22.6676307,22.820694 L22.6674068,22.8210284 C23.6385648,21.1440431 24.6606539,19.5269143 25.7166594,17.9871419 C27.5868887,17.8463622 29.5046909,17.772907 31.4428655,17.772907 L31.4429775,17.772907 C33.3898829,17.772907 35.3101476,17.8469194 37.179817,17.9889254 C38.2197038,19.5174398 39.2348529,21.1293297 40.2098168,22.806538 C41.1958627,24.5025838 42.1016499,26.1829128 42.9207984,27.8309175 C42.1041125,29.5072339 41.2003401,31.204506 40.2186597,32.8997713 Z M45.7605068,3.02658289 C47.8663618,4.23586262 48.6852863,9.11288583 47.3622012,15.5081687 C47.2778011,15.9162407 47.1827677,16.3318923 47.0795622,16.7531171 C44.4705544,16.1536603 41.6374503,15.7075789 38.6712547,15.4304778 C36.9432961,12.980151 35.1526534,10.7525305 33.3552944,8.82396948 C33.8385229,8.36105695 34.3210797,7.919657 34.8016215,7.50311371 C39.4442854,3.47979806 43.7834905,1.89131568 45.7605068,3.02658289 Z M31.4429775,22.2128773 C34.5442804,22.2128773 37.0584783,24.7163728 37.0584783,27.8047231 C37.0584783,30.8929618 34.5442804,33.3965693 31.4429775,33.3965693 C28.3416744,33.3965693 25.8274765,30.8929618 25.8274765,27.8047231 C25.8274765,24.7163728 28.3416744,22.2128773 31.4429775,22.2128773 Z" id="Shape"></path>
                </g>
                <g id="webpack" transform="translate(225.000000, 76.000000)" fill-rule="nonzero">
                    <polygon id="Shape" fill="#FFFFFF" points="24.5 0.0093272609 49 13.9908913 49 41.9633468 24.5 55.9449109 0 41.9633468 0 13.9908913"></polygon>
                    <path d="M44.6269812,40.9933116 L25.3135849,52.0274614 L25.3135849,43.4463813 L37.3509435,36.7587352 L44.6269812,40.9933116 Z M45.9490565,39.790095 L45.9490565,16.733106 L38.8856604,20.8464281 L38.8856604,35.6767729 L45.9490565,39.790095 Z M4.29905661,40.9933116 L23.6124529,52.0181341 L23.6124529,43.437054 L11.5750943,36.7587352 L4.29905661,40.9933116 Z M2.97698112,39.790095 L2.97698112,16.733106 L10.0403774,20.8464281 L10.0403774,35.6767729 L2.97698112,39.790095 Z M3.79981133,15.2407443 L23.6124529,3.93610409 L23.6124529,12.2373663 L10.9186792,19.2794483 L10.8169811,19.3354118 L3.79981133,15.2407443 Z M45.1169812,15.2407443 L25.3135849,3.93610409 L25.3135849,12.2373663 L37.9981133,19.2887755 L38.0998112,19.3447391 L45.1169812,15.2407443 Z" id="Shape" fill="#E48452"></path>
                    <path d="M23.6124529,41.4876564 L11.7415094,34.8932829 L11.7415094,21.844445 L23.6124529,28.7559454 L23.6124529,41.4876564 Z M25.3135849,41.4876564 L37.1845284,34.9026102 L37.1845284,21.844445 L25.3135849,28.7559454 L25.3135849,41.4876564 Z M12.5366038,20.3334287 L24.4630188,13.7204008 L36.3801888,20.3334287 L24.4630188,27.2729109 L12.5366038,20.3334287 Z" id="Shape" fill="#E48452"></path>
                </g>
                <path d="M61.5757576,155.568182 L98.4242424,179.431818" id="Line-8" stroke="#E48452" stroke-linecap="square" stroke-dasharray="3" fill-rule="nonzero"></path>
                <path d="M193,178 L231,136" id="Line-8" stroke="#E48452" stroke-linecap="square" stroke-dasharray="3" fill-rule="nonzero"></path>
                <path d="M179,62 L216,83" id="Line-8" stroke="#E48452" stroke-linecap="square" stroke-dasharray="3" fill-rule="nonzero"></path>
                <path d="M293,97 L401.426316,53.5789474" id="Line-8" stroke="#E48452" stroke-linecap="square" stroke-dasharray="3" fill-rule="nonzero"></path>
                <path d="M456.25,142 L456.25,88" id="Line-8" stroke="#E48452" stroke-linecap="square" stroke-dasharray="3" fill-rule="nonzero"></path>
                <path d="M533,161 L498,187" id="Line-8" stroke="#E48452" stroke-linecap="square" stroke-dasharray="3" fill-rule="nonzero"></path>
                <path d="M594,164 L613,181" id="Line-8" stroke="#E48452" stroke-linecap="square" stroke-dasharray="3" fill-rule="nonzero"></path>
                <path d="M667,185 L705.5,151" id="Line-8" stroke="#E48452" stroke-linecap="square" stroke-dasharray="3" fill-rule="nonzero"></path>
                <path d="M585,103.5 L597,79" id="Line-8" stroke="#E48452" stroke-linecap="square" stroke-dasharray="3" fill-rule="nonzero"></path>
                <path d="M406,225 L395,232" id="Line-8" stroke="#E48452" stroke-linecap="square" stroke-dasharray="3" fill-rule="nonzero"></path>
                <path d="M397,177 L372,165" id="Line-8" stroke="#E48452" stroke-linecap="square" stroke-dasharray="3" fill-rule="nonzero"></path>
                <circle id="Oval-9" stroke="#FBC8AD" stroke-width="2" cx="343" cy="149" r="28"></circle>
                <circle id="Oval-9" stroke="#FBC8AD" stroke-width="2" cx="447.5" cy="194.5" r="46.5"></circle>
                <circle id="Oval-9" stroke="#FBC8AD" stroke-width="2" cx="456.5" cy="41.5" r="41.5"></circle>
                <g id="download-(14)" transform="translate(5.000000, 129.000000)" fill="#E48452" fill-rule="nonzero">
                    <path d="M51.7458766,1.58971429 L53.9458333,1.60159793 C53.9458333,1.60159793 49.8556807,7.05004933 49.5217433,7.49410138 C49.4132516,7.63789343 49.2484487,7.79297494 49.1649392,7.98519285 C48.9536974,8.46846092 48.7368143,9.5284817 48.7368143,9.5284817 L46.723923,9.53828571 C46.723923,9.53828571 47.0371088,8.43340418 47.0242147,7.84486685 C47.0128317,7.33070132 46.7458833,6.81722898 46.59609,6.30157799 C46.4447856,5.77968808 46.2392857,4.75828912 46.2392857,4.75828912 L48.3086896,4.75828912 L48.5940725,5.88069903 L51.7458766,1.58971429" id="Shape"></path>
                    <path d="M47.0935143,1.78717416 C47.519308,2.06189194 47.7805952,3.57702274 47.7805952,3.57702274 C47.7805952,3.57702274 45.5525217,3.6121821 44.3400138,3.6121821 L43.2922233,3.6121821 L42.0199139,9.53828571 L40.0740476,9.53828571 C40.0740476,9.53828571 41.2849708,3.09813198 41.570876,1.93052484 C41.663642,1.55259003 42.2055516,1.61736917 43.1208494,1.61736917 L44.5824942,1.61736917 C45.5263192,1.61736917 46.6294732,1.48848922 47.0935143,1.78717416" id="Shape"></path>
                    <path d="M39.5901707,4.6793976 C39.5901707,4.6793976 39.6546253,4.30879222 39.3714295,3.87970497 C39.1296687,3.51383542 38.9062115,3.42881094 38.2698631,3.40931698 C36.4729962,3.35391891 36.5079184,4.65990365 36.5079184,4.65990365 L39.5901707,4.6793976 Z M41.5389661,3.18386997 C41.8022864,4.1153946 41.3003495,6.3044444 41.3003495,6.3044444 C41.3003495,6.3044444 38.6793852,6.26149164 37.2437558,6.3044444 C36.7974025,6.31777078 36.2630136,6.25686593 36.1301743,6.46050616 C35.9432114,6.74597694 36.1984469,7.18530677 36.41483,7.37088481 C36.6638896,7.58465748 37.1489828,7.60888725 37.3232571,7.63069405 C38.4884921,7.77585242 40.9273216,7.66814007 40.9273216,7.66814007 L40.5048862,9.50299465 C40.5048862,9.50299465 37.0584771,9.67238279 35.334711,9.26895707 C34.9943595,9.18943939 34.6753433,9.02875194 34.4597462,8.80088194 C34.4009062,8.73854533 34.3499265,8.65352087 34.2942306,8.58017074 C34.2497637,8.52157872 34.1201807,8.32895204 34.0620145,8.17674502 C33.6683252,7.14775063 34.1081657,5.17632821 34.5392476,4.12002028 C34.589329,3.99754978 34.6522115,3.84236911 34.7183503,3.71042699 C34.800996,3.54588479 34.8709527,3.36019662 34.9369793,3.26184578 C34.9814462,3.19400242 35.0364683,3.15027868 35.0826197,3.08629007 C35.1358451,3.01062708 35.1978293,2.93727695 35.2552095,2.87185657 C35.4142124,2.69079409 35.594775,2.56281684 35.8119441,2.40378142 C36.530152,1.87634334 37.8299103,1.46675003 39.3913047,1.62358274 C39.9791438,1.68283555 40.8669097,1.88878862 41.3003495,2.48175723 C41.4164575,2.64013185 41.4737255,2.95445807 41.5389661,3.18386997 Z" id="Shape"></path>
                    <path d="M31.9559881,1.60169057 L33.9088095,1.58971429 C33.9088095,1.58971429 32.820531,6.92390273 32.2658937,9.52501443 L30.01946,9.52501443 C28.4493732,9.52501443 27.0511889,9.72589954 26.45631,8.56453966 C25.8792555,7.4369619 26.4299559,5.58255975 26.6886845,4.32279101 C26.8715224,3.4312363 27.2565534,1.60892152 27.2565534,1.60892152 L29.2797982,1.58971429 C29.2797982,1.58971429 28.7081018,4.42684904 28.4702595,5.8434392 C28.3850738,6.35084919 28.209344,6.82865743 28.3928378,7.20398943 C28.5671462,7.56101805 28.8111121,7.58655237 29.5547109,7.60417784 C29.7902568,7.60982702 30.5617404,7.60417784 30.5617404,7.60417784 L31.9559881,1.60169057" id="Shape"></path>
                    <path d="M23.491472,5.61397503 C23.6932348,4.90720049 23.9874632,4.14085433 23.9500239,3.50407643 C23.9095634,2.82293894 23.3302774,2.20275598 22.9565306,2.07244309 C21.8307586,1.68054702 20.7768444,2.22839305 20.3579976,2.67518009 C19.8160432,3.25398205 19.6326224,3.92990701 19.4407859,4.86050059 C19.2979335,5.55142484 19.1809757,6.28085787 19.4407859,6.81966177 C19.9008484,7.77216919 21.3354146,7.56420047 22.8800335,7.57324258 C23.1093093,6.96742063 23.2988802,6.28692141 23.491472,5.61397503 Z M26.1665022,2.82591752 C26.3866071,4.40382041 25.5421162,6.14533248 24.9604566,7.65983417 C25.5535531,7.71259759 26.0732813,7.65164307 26.1107206,7.69525799 C26.1496706,7.75185102 25.7132372,9.50304346 25.5611056,9.50751133 C25.0903618,9.51963842 23.5305299,9.53240374 22.8800335,9.53240374 C20.7576391,9.53240374 18.7720553,9.66878017 17.7594646,8.62819189 C17.3482784,8.20544624 17.0639762,7.48048109 16.9951395,6.97039921 C16.8804475,6.11884438 17.0241631,5.18144263 17.2244154,4.40839468 C17.4055705,3.71055586 17.6378675,3.05197049 17.9887407,2.44912712 C18.8805972,0.914200874 20.4321212,-0.22510608 23.03292,0.0378600062 C23.5373271,0.0891341381 24.2618392,0.306889632 24.7143491,0.56528147 C24.7456385,0.583472085 24.8550435,0.669319025 24.8801831,0.68442468 C25.4916216,1.06802327 26.0487891,1.98351119 26.1665022,2.82591752 Z" id="Shape"></path>
                    <path d="M16.9544048,1.59766239 C16.7980933,2.10437739 16.6417819,2.67869803 16.4770638,3.17942857 L13.8717857,3.17942857 C14.0736771,2.62437039 14.2281495,2.07258497 14.4300409,1.58971429 C15.2637456,1.58971429 16.0388664,1.59766239 16.9544048,1.59766239" id="Shape"></path>
                    <path d="M13.6527513,4.76914286 L15.4130952,4.76914286 C15.182985,6.18939946 14.7272745,8.4802584 14.3699592,10.0748407 C14.146292,11.0727756 13.9969964,11.801065 13.3918984,12.3279411 C13.3377764,12.3752418 13.3065734,12.3527714 13.2615638,12.4006878 C13.1500063,12.5191965 12.6342832,12.6565844 12.3487623,12.6913674 C11.8844917,12.7473897 11.3596561,12.6986524 10.7891667,12.6856216 C10.9384622,12.0772773 11.1073632,11.3468333 11.240367,10.8016936 C12.6310616,10.9892553 12.6663145,9.52395512 12.9355435,8.11252255 C13.0913743,7.29701903 13.5634686,5.09624718 13.6527513,4.76914286" id="Shape"></path>
                    <g id="Group" transform="translate(0.000000, 1.589714)">
                        <path d="M9.01497514,7.06220035 L8.97410718,7.17259596 C8.27785656,8.58632501 7.04434171,9.45379331 5.28482621,9.49204716 C4.46228361,9.50971878 3.67851575,9.28965521 3.1665697,9.05025682 C2.06163943,8.53258252 1.13234172,7.57249416 0.624781507,6.546709 C-0.103266376,5.07622288 -0.234542261,3.03068166 1.27926704,1.50281478 C1.30259169,1.50281478 1.09566023,1.83410555 1.11898487,1.83410555 L1.07731948,1.97547846 C-0.0135562037,5.53714012 3.34728586,8.58933958 6.61433096,8.24027323 C7.39949432,8.15638505 8.40075951,7.70794189 9.01497514,7.06220035" id="Shape"></path>
                        <path d="M7.03796231,5.58942731 C7.85990685,5.59535249 8.7184332,5.19472663 9.22679083,4.63224957 C8.78202774,5.80969878 7.49418837,6.56656357 5.76706823,6.32581383 C4.32103993,6.12404558 2.94349041,4.60646981 2.80154897,3.08587946 C2.69778421,1.97922067 3.06768915,1.31871815 3.67712025,0.517570366 C3.46530457,0.936595501 3.38616027,1.25977812 3.36642402,1.46591229 C3.13487211,3.85979218 5.20009993,5.57695323 7.03796231,5.58942731" id="Shape"></path>
                        <path d="M9.14425746,2.61612641 C9.01647031,2.92174138 8.28074724,3.49897941 7.95589672,3.57112118 C6.66945287,3.85688156 5.84551479,3.22070349 5.41400886,2.49679106 C5.34981625,2.3885784 5.23119946,2.09335851 5.20996806,2.01820218 C5.04260874,1.42474783 5.11956014,0.527133826 5.61884709,0.0624743502 C5.46843303,0.50426468 5.44650388,1.01746912 5.52564818,1.3510468 C5.57359328,1.55281505 5.71972119,1.90489596 5.86594877,2.12641482 C6.13208893,2.52995131 6.30084375,2.62797678 6.64263949,2.8422191 C6.79654228,2.93868533 6.96170867,3.01602462 7.0330781,3.0373345 C7.35713116,3.13671134 8.04132075,3.39887491 9.14425746,2.61612641" id="Shape"></path>
                    </g>
                </g>
                <circle id="Oval-9" stroke="#FABE9E" stroke-width="2" cx="565.5" cy="139.5" r="32.5"></circle>
                <g id="vuejs-seeklogo.com" transform="translate(431.000000, 25.000000)" fill-rule="nonzero">
                    <polygon id="Shape" fill="#41B883" points="42.9206954 0 53.6508693 0 26.8254346 45.958371 0 0 10.5960467 0 20.5214575 0 26.8254346 10.6570136 32.9952846 0"></polygon>
                    <polygon id="Shape" fill="#E48452" points="0 0 26.8254346 45.958371 53.6508693 0 42.9206954 0 26.8254346 27.5750226 10.5960467 0"></polygon>
                    <polygon id="Shape" fill="#E98E5F" points="10.5960467 0 26.8254346 27.7082353 42.9206954 0 32.9952846 0 26.8254346 10.6570136 20.5214575 0"></polygon>
                </g>
                <circle id="Oval-9" stroke="#FBC8AD" stroke-width="2" cx="738.5" cy="117.5" r="41.5"></circle>
                <g id="d3-seeklogo.com" transform="translate(330.000000, 134.000000)" fill-rule="nonzero">
                    <path d="M29.4426337,20.2358958 C29.4558464,20.1074568 29.4653717,19.9777888 29.4727462,19.8475062 C29.4816571,19.6932565 20.1898053,10.877059 20.1898053,10.877059 L19.9676489,10.877059 C19.9676489,10.877059 29.3857888,20.8114129 29.4426337,20.2358958 Z" id="Shape" fill="url(#linearGradient-1)"></path>
                    <path d="M9.61817284,17.1776351 C9.60588203,17.2046749 9.59359122,17.2317147 9.58099314,17.2587544 C9.56778053,17.2870234 9.55426063,17.3152922 9.54074074,17.3432538 C9.24453223,17.960867 13.6873526,22.3041317 14.0447078,21.7765487 C14.0609931,21.7531962 14.0772785,21.7286145 14.0935638,21.705262 C14.1116927,21.6776077 14.1295144,21.6511824 14.1473361,21.6235281 C14.4330974,21.1896626 9.74507544,16.895561 9.61817284,17.1776351 Z" id="Shape" fill="url(#linearGradient-2)"></path>
                    <path d="M15.8963182,23.2852456 C15.8837202,23.3128999 15.7943045,23.4640769 15.7125707,23.5439671 C15.6987435,23.5716214 20.04969,27.8866173 20.04969,27.8866173 L20.4414596,27.8866173 C20.4417668,27.8866173 16.3572236,23.4677641 15.8963182,23.2852456 Z" id="Shape" fill="url(#linearGradient-3)"></path>
                    <path d="M29.4788917,19.7691523 C29.2754787,24.2798793 25.5436818,27.8866173 20.9844061,27.8866173 L20.3680219,27.8866173 L15.8148917,23.4010864 C16.189454,22.8728889 16.5375913,22.3256406 16.8476268,21.7550398 L20.9844061,21.7550398 C22.2927627,21.7550398 23.357454,20.690963 23.357454,19.3819918 C23.357454,18.0736351 22.2927627,17.0089437 20.9844061,17.0089437 L18.536384,17.0089437 C18.7228971,16.0229136 18.8249108,15.0061564 18.8249108,13.9660466 C18.8249108,12.9099588 18.7210535,11.87876 18.5277806,10.877059 L20.0484609,10.877059 L29.4521592,20.1427929 C29.4632209,20.0186557 29.4721317,19.8945185 29.4788917,19.7691523 Z M2.47352538,0 L0,0 L0,6.1315775 L2.47352538,6.1315775 C6.79374486,6.1315775 10.3089163,9.64582716 10.3089163,13.9660466 C10.3089163,15.1413552 10.0468148,16.2570535 9.58099314,17.2587544 L14.0935638,21.705262 C15.5752209,19.4883073 16.4414156,16.8267325 16.4414156,13.9660466 C16.4414156,6.26524005 10.1752538,0 2.47352538,0 Z" id="Shape" fill="#E48452"></path>
                    <path d="M20.9844061,0 L10.968011,0 C13.4144966,1.49364061 15.4403292,3.61165432 16.8205871,6.1315775 L20.9844061,6.1315775 C22.2927627,6.1315775 23.357454,7.19565432 23.357454,8.50462551 C23.357454,9.81328943 22.2927627,10.8773663 20.9844061,10.8773663 L20.0487682,10.8773663 L29.4524664,20.1431001 C29.4745898,19.8917531 29.488417,19.6388696 29.488417,19.3819918 C29.488417,17.3149849 28.7466667,15.4188203 27.5151276,13.9430013 C28.7466667,12.467797 29.488417,10.5713251 29.488417,8.50462551 C29.488417,3.81537449 25.6739643,0 20.9844061,0 Z" id="Shape" fill="#E98E5F"></path>
                    <path d="M20.3680219,27.8866173 L11.0396049,27.8866173 C12.9173333,26.7269794 14.540642,25.1961592 15.8148917,23.4010864 L20.3680219,27.8866173 Z M14.0935638,21.705262 L9.58130041,17.2587544 C8.33470507,19.9378436 5.61812894,21.8011304 2.47352538,21.8011304 L0,21.8011304 L0,27.9320933 L2.47352538,27.9320933 C7.31426063,27.9320933 11.5868532,25.4561098 14.0935638,21.705262 Z" id="Shape" fill="#E98E5F"></path>
                </g>
                <g id="nodejs-seeklogo.com" transform="translate(421.000000, 165.000000)" fill="#E48452" fill-rule="nonzero">
                    <path d="M28.2751555,63.8812503 C27.3970451,63.8812503 26.5774754,63.6465003 25.8164462,63.2356885 L18.0305341,58.5993828 C16.8597199,57.9538212 17.4451272,57.7190714 17.796371,57.6016966 C19.3769699,57.0735103 19.6696734,56.956135 21.3088131,56.0171363 C21.4844348,55.8997616 21.7185978,55.9584492 21.89422,56.0758238 L27.8653707,59.6557562 C28.0995339,59.7731311 28.3922372,59.7731311 28.5678595,59.6557562 L51.9255965,46.0989639 C52.1597596,45.9815886 52.2768408,45.7468393 52.2768408,45.4534021 L52.2768408,18.3985045 C52.2768408,18.1050669 52.1597596,17.8703175 51.9255965,17.7529428 L28.5678595,4.2548375 C28.3336963,4.13746281 28.040993,4.13746281 27.8653707,4.2548375 L4.50763314,17.7529428 C4.27347061,17.8703175 4.15638933,18.1637545 4.15638933,18.3985045 L4.15638933,45.4534021 C4.15638933,45.6881517 4.27347061,45.9815886 4.50763314,46.0989639 L10.8885691,49.7962709 C14.3424703,51.556893 16.5084761,49.5028338 16.5084761,47.4487742 L16.5084761,20.7460006 C16.5084761,20.3938765 16.8011795,20.0417519 17.2109642,20.0417519 L20.1965398,20.0417519 C20.5477841,20.0417519 20.8990279,20.3351889 20.8990279,20.7460006 L20.8990279,47.4487742 C20.8990279,52.0850799 18.3817784,54.7847007 13.991226,54.7847007 C12.6447902,54.7847007 11.5910577,54.7847007 8.6054821,53.3175155 L2.45870917,49.7962709 C0.93665116,48.9159594 5.68434189e-14,47.272712 5.68434189e-14,45.5120892 L5.68434189e-14,18.4571916 C5.68434189e-14,16.6965695 0.93665116,15.0533216 2.45870917,14.1730105 L25.8164462,0.616217582 C27.2799639,-0.205405862 29.2703475,-0.205405862 30.7338652,0.616217582 L54.0916022,14.1730105 C55.6136602,15.0533216 56.5503114,16.6965695 56.5503114,18.4571916 L56.5503114,45.5120892 C56.5503114,47.272712 55.6136602,48.9159594 54.0916022,49.7962709 L30.7338652,63.3530632 C29.9728356,63.7051879 29.0947255,63.8812503 28.2751555,63.8812503 Z M35.4756614,45.2773399 C25.2310394,45.2773399 23.1235745,40.5823466 23.1235745,36.5916025 C23.1235745,36.239478 23.4162781,35.8873538 23.8260626,35.8873538 L26.8701791,35.8873538 C27.2214231,35.8873538 27.5141264,36.1221031 27.5141264,36.4742278 C27.982452,39.5846608 29.3288884,41.1105335 35.5342018,41.1105335 C40.4516205,41.1105335 42.5590853,39.9954726 42.5590853,37.354539 C42.5590853,35.8286662 41.9736785,34.7136053 34.304847,33.9506688 C27.9239116,33.3051073 23.9431445,31.8966092 23.9431445,26.7908044 C23.9431445,22.0371239 27.9239116,19.2201279 34.597551,19.2201279 C42.0907597,19.2201279 45.7788235,21.8023745 46.2471491,27.436366 C46.2471491,27.6124282 46.1886082,27.7884906 46.071527,27.9645529 C45.9544458,28.0819275 45.7788235,28.1993022 45.6032014,28.1993022 L42.5590853,28.1993022 C42.266382,28.1993022 41.9736785,27.9645529 41.9151377,27.6711157 C41.2126496,24.4433081 39.3978876,23.3869343 34.597551,23.3869343 C29.2118067,23.3869343 28.5678595,25.2649317 28.5678595,26.6734295 C28.5678595,28.3753646 29.3288884,28.9035516 36.5879346,29.8425503 C43.7884401,30.7815487 47.1838003,32.1313592 47.1838003,37.1784765 C47.1252594,42.3429691 42.9103297,45.2773399 35.4756614,45.2773399 Z" id="Shape"></path>
                </g>
                <g id="jest-seeklogo.com" transform="translate(139.000000, 29.000000)" fill-rule="nonzero">
                    <path d="M27.1347061,15.7402686 C27.1347061,14.0968481 25.8024658,12.7646078 24.1590453,12.7646078 C24.0533209,12.7646078 23.9490665,12.7702615 23.8462821,12.7810035 L27.9333492,0.726727915 L10.564699,0.726727915 L14.6459994,12.7706007 C14.5861831,12.7669823 14.5260276,12.7646078 14.4651937,12.7646078 C12.8217732,12.7646078 11.4895329,14.0968481 11.4895329,15.7402686 C11.4895329,17.0686643 12.3600913,18.1933004 13.5617308,18.5759435 C12.9270453,19.6752509 12.1285153,20.6653286 11.2218863,21.5206219 C9.98903825,22.6837032 8.57809832,23.5655689 7.05216192,24.1090035 C5.2352856,23.175689 4.37727853,21.0998728 5.15149761,19.2799435 C5.23890397,19.0744876 5.32811952,18.8660919 5.41349054,18.6587138 C6.72967429,18.3514912 7.71047994,17.1714488 7.71047994,15.7616396 C7.71047994,14.1182191 6.37823966,12.7859788 4.73481917,12.7859788 C3.0912856,12.7859788 1.75904531,14.1182191 1.75904531,15.7616396 C1.75904531,16.76947 2.26052941,17.659477 3.02694637,18.1978233 C2.290381,19.8748269 1.20780857,21.6297385 0.870508213,23.6637173 C0.46626793,26.1014841 0.869264397,28.6890742 2.97753295,30.1503322 C7.88766722,33.5534134 13.2175329,28.0407067 18.8372079,26.6548693 C20.8737874,26.1525936 23.1093775,26.2335548 24.903752,25.1942898 C26.2512573,24.4138516 27.1395683,23.1205088 27.3917238,21.6684099 C27.6407132,20.2339505 27.2776319,18.8057102 26.442692,17.6476042 C26.8745223,17.1310813 27.1347061,16.4662049 27.1347061,15.7402686 Z M17.4406284,15.7507845 C17.4406284,15.7472792 17.4409676,15.7437739 17.4409676,15.7402686 C17.4409676,14.6610883 16.8663245,13.7160141 16.0065082,13.1944028 L19.254904,6.62580919 L22.5089534,13.2640565 C21.709858,13.7975406 21.1832715,14.7073357 21.1832715,15.7402686 C21.1832715,15.7619788 21.1845153,15.7833498 21.1849676,15.804947 L17.4406284,15.7507845 Z" id="Shape" fill="#E48452"></path>
                    <path d="M27.8613751,15.7402686 C27.8613751,13.9327774 26.5590995,12.4245936 24.8436507,12.1024452 L28.9470005,0 L9.55092981,0 L13.6604988,12.1269823 C12.0047532,12.4954912 10.7627461,13.9751802 10.7627461,15.7402686 C10.7627461,17.0658375 11.4632408,18.2301625 12.5131348,18.8844099 C12.0081454,19.6366926 11.4093044,20.3446502 10.723057,20.992 C9.63483087,22.0187138 8.42233617,22.7973428 7.11519836,23.3095689 C5.79867539,22.4825442 5.24212416,20.9230247 5.82015949,19.5643251 L5.86538917,19.4580353 C5.89365773,19.3915477 5.92203935,19.3248339 5.9503079,19.2581201 C7.39630083,18.7539223 8.43714889,17.37747 8.43714889,15.7616396 C8.43714889,13.7200848 6.77620189,12.0592509 4.73464712,12.0592509 C2.69309235,12.0592509 1.03225844,13.7200848 1.03225844,15.7616396 C1.03225844,16.7920848 1.45572133,17.7251731 2.13733264,18.3970601 C2.01374253,18.660523 1.88382027,18.9282827 1.75027963,19.2026007 C1.12701462,20.4827138 0.420640061,21.933682 0.153445714,23.5448763 C-0.37721153,26.7447633 0.478647128,29.3027279 2.56339624,30.7475901 C3.82847045,31.6243675 5.11310649,31.9692438 6.40588387,31.9691307 C8.84025843,31.9690177 11.3026754,30.7461201 13.711156,29.5497951 C15.4458274,28.6882827 17.2394104,27.797371 19.0111701,27.3604523 C19.6703928,27.1978516 20.3487249,27.1000424 21.0668592,26.9964664 C22.4909157,26.7910106 23.9635942,26.5786572 25.2680182,25.8232085 C26.7799334,24.9474488 27.8150147,23.4783887 28.1076507,21.7927915 C28.3589016,20.3457809 28.0564281,18.8966219 27.3189581,17.6675053 C27.6628168,17.1057527 27.8613751,16.4458516 27.8613751,15.7402686 Z M26.4079193,15.7402686 C26.4079193,16.9803534 25.3990712,17.9893145 24.1588733,17.9893145 C22.9189016,17.9893145 21.9099405,16.9803534 21.9099405,15.7402686 C21.9099405,14.5001837 22.9189016,13.4913357 24.1588733,13.4913357 C25.3990712,13.4913357 26.4079193,14.5001837 26.4079193,15.7402686 Z M26.919467,1.45345583 L23.2960041,12.1404382 C23.138944,12.1780919 22.9858415,12.225583 22.8371489,12.2826855 L19.2576719,4.98057951 L15.6677921,12.2394912 C15.5126542,12.1860071 15.3529935,12.1420212 15.189262,12.1094558 L11.5782373,1.45345583 L26.919467,1.45345583 Z M14.4651348,13.4913357 C15.7052196,13.4913357 16.7140677,14.5001837 16.7140677,15.7402686 C16.7140677,16.9803534 15.7052196,17.9893145 14.4651348,17.9893145 C13.2251631,17.9893145 12.216202,16.9803534 12.216202,15.7402686 C12.216202,14.5001837 13.2251631,13.4913357 14.4651348,13.4913357 Z M4.73464712,13.5127067 C5.974845,13.5127067 6.98369306,14.5215548 6.98369306,15.7616396 C6.98369306,17.0017244 5.974845,18.0106855 4.73464712,18.0106855 C3.49467539,18.0106855 2.48571426,17.0017244 2.48571426,15.7616396 C2.48571426,14.5215548 3.49467539,13.5127067 4.73464712,13.5127067 Z M26.6755659,21.5441413 C26.4567673,22.8046926 25.6781383,23.9059223 24.5394811,24.565371 C23.4780535,25.1801555 22.2060818,25.3636749 20.859368,25.5578233 C20.1379546,25.6618516 19.391891,25.7694982 18.6631277,25.9492862 C16.7361171,26.424424 14.8696012,27.3515194 13.0645977,28.2480848 C9.45244218,30.0422332 6.33283794,31.591576 3.39143864,29.5529611 C1.23680967,28.0597032 1.33631497,25.296735 1.5873397,23.7826714 C1.81993334,22.3799859 2.44885207,21.0881131 3.05707822,19.8387562 C3.1623503,19.6225583 3.26456939,19.4107703 3.36486621,19.2003392 C3.66654818,19.3209894 3.9873397,19.4031943 4.32170013,19.4405088 C3.70261886,21.4838728 4.67630083,23.7055548 6.71989094,24.7554488 L6.99952345,24.8991661 L7.29577787,24.7936678 C8.91138211,24.2183463 10.400004,23.2949823 11.7204846,22.0492438 C12.5740818,21.2440424 13.3075942,20.3531307 13.910732,19.401159 C14.0916507,19.4284099 14.2767532,19.4427703 14.4651348,19.4427703 C16.5066896,19.4427703 18.1676366,17.7819364 18.1676366,15.7402686 C18.1676366,14.642318 17.686732,13.6549541 16.9250641,12.9762827 L19.2519051,8.27103887 L21.6023786,13.0659505 C20.8971348,13.7405512 20.4564846,14.689583 20.4564846,15.7402686 C20.4564846,17.7819364 22.1173186,19.4427703 24.1588733,19.4427703 C24.9432691,19.4427703 25.6709016,19.196947 26.2701949,18.7792509 C26.686308,19.6310389 26.8413327,20.5894558 26.6755659,21.5441413 Z" id="Shape" fill="#FFFFFF"></path>
                </g>
                <g id="Group-20" transform="translate(615.000000, 173.000000)">
                    <circle id="Oval-9" stroke="#FBC8AD" stroke-width="2" cx="24.454728" cy="24.454728" r="24.454728"></circle>
                    <path d="M32.8243627,13.6744186 C30.4211251,17.3671985 27.9495024,21.0111321 25.5462648,24.7039121 C23.484951,24.7136813 21.4236374,24.7136813 19.372093,24.6843735 C23.8561829,21.0209014 28.2425803,17.2304289 32.8243627,13.6744186 Z" id="Shape" fill="#E48452" fill-rule="nonzero"></path>
                    <path d="M23.2315863,26.2093023 C25.3026694,26.2093023 27.363983,26.2093023 29.4252965,26.2386102 C24.9118989,29.8825437 20.5450401,33.7023241 15.9534884,37.2485651 C18.3567261,33.5557852 20.8283487,29.9020822 23.2315863,26.2093023 Z" id="Shape" fill="#E48452" fill-rule="nonzero"></path>
                </g>
                <g id="Group-20" transform="translate(585.000000, 27.000000)" stroke="#FBC8AD" stroke-width="2">
                    <circle id="Oval-9" cx="24.454728" cy="24.454728" r="24.454728"></circle>
                </g>
                <g id="Group-20" transform="translate(345.000000, 221.000000)" stroke="#FBC8AD" stroke-width="2">
                    <circle id="Oval-9" cx="24.454728" cy="24.454728" r="24.454728"></circle>
                </g>
                <g id="lodash-seeklogo.com" transform="translate(549.000000, 123.000000)" fill-rule="nonzero">
                    <polygon id="Shape" fill="#E98E5F" points="0 0 3.28144473 0 3.28144473 21.3658547 16.2580645 21.3658547 16.2580645 24 1.61919907e-07 24 1.61919907e-07 4.51638433e-15"></polygon>
                    <path d="M25.072342,6.94327604 C27.336678,6.6487482 29.7519646,7.09053966 31.5634345,8.56317811 C33.5258548,9.88855229 34.5825477,12.2447728 34.7335031,14.4537294 C35.0354139,17.1044778 34.7335031,19.7552261 33.2239441,21.9641837 C31.8653453,23.7313494 29.7519647,24.9094606 27.336678,25.0567242 C25.072342,25.3512513 22.506095,24.9094606 20.5436747,23.4368221 C18.7322048,21.9641837 17.8264723,19.7552261 17.5245615,17.5462697 C17.2226506,15.1900484 17.5245615,12.5393001 19.0341156,10.4776072 C20.2417638,8.41591385 22.6570504,7.09053966 25.072342,6.94327604 Z M25.5252081,9.44676101 C27.0347623,9.29949676 28.6952769,9.74128821 29.90292,10.7721346 C30.9596128,11.9502458 31.5634345,13.422883 31.7143899,14.8955215 C31.8653453,16.5154234 31.7143899,18.282589 30.9596128,19.7552263 C30.2048358,21.2278637 28.846232,22.258711 27.1857227,22.5532383 C25.6761636,22.8477655 24.015654,22.4059746 22.9589612,21.5223931 C21.7513178,20.6388091 20.9965409,19.3134354 20.6946251,17.9880607 C20.3927142,16.0736313 20.5436747,14.1592023 21.2984517,12.3920366 C22.0532287,10.7721346 23.7137431,9.59402461 25.525208,9.44676101 L25.5252081,9.44676101 Z" id="Shape" fill="#E98E5F"></path>
                    <polygon id="Shape" fill="#E48452" points="0 28.5714286 36 28.5714286 36 32 0 32"></polygon>
                </g>
                <g id="gatsby-seeklogo.com" transform="translate(354.000000, 230.000000)" fill="#E48452" fill-rule="nonzero">
                    <path d="M16,0 C7.16344976,0 0,7.16342175 0,16 C0,24.8366062 7.16347776,32 16,32 C24.8366062,32 32,24.8365782 32,16 C32,7.16342175 24.8366062,0 16,0 Z M3.43799662,16.1667891 L15.8331829,28.5620034 C9.0268064,28.4732881 3.52668389,22.9731656 3.43799662,16.1667891 Z M18.8120331,28.2479155 L3.75208451,13.1879669 C5.0291027,7.60290958 10.0277935,3.43589636 16,3.43589636 C20.1746861,3.43589636 23.8731159,5.47251101 26.157842,8.60580094 L24.4182611,10.1407319 C22.5649577,7.48297034 19.4858267,5.74358544 16,5.74358544 C11.5618563,5.74358544 7.78244038,8.56264745 6.35389495,12.5077045 L19.4923235,25.646133 C22.6829927,24.4907064 25.1368884,21.7973243 25.9587367,18.4615406 L20.5128291,18.4615406 L20.5128291,16.000028 L26.2564146,16.000028 L26.2564146,15.999972 L28.5641036,15.999972 L28.5641036,16 C28.5641036,21.9722065 24.3971184,26.9708973 18.8120331,28.2479155 Z" id="Shape"></path>
                </g>
                <g id="eslint-seeklogo.com" transform="translate(596.000000, 37.000000)" fill-rule="nonzero">
                    <path d="M10.6499847,27.9048131 L0.063703008,18.3725266 L3.02878847,4.43894142 L16.5685733,0.0376426865 L27.1548549,9.56992915 L24.1897695,23.5035144 L10.6499847,27.9048131 Z M5.53057933,16.6004247 L11.8429683,22.2757837 L19.9158767,19.6465868 L21.6879786,11.342031 L15.3755896,5.65508976 L7.30268119,8.295869 L5.53057933,16.6004247 Z" id="Shape" fill="#E16D2B"></path>
                    <path d="M19.3020114,23.8394029 L7.91654654,23.8394029 L2.21802292,13.9712279 L7.91654654,4.10305283 L19.3020114,4.10305283 L25.000535,13.9712279 L19.3020114,23.8394029 Z M9.9202957,20.3646934 L17.2982622,20.3646934 L20.9930367,13.9712279 L17.2982622,7.57776236 L9.9202957,7.57776236 L6.2371036,13.9712279 L9.9202957,20.3646934 Z" id="Shape" fill="#E98E5F"></path>
                </g>
                <g id="typescript-seeklogo.com" transform="translate(707.000000, 111.000000)" fill="#E48452" fill-rule="nonzero">
                    <path d="M8.16867574,1.45128756 L4.76851629,1.45128756 L4.76851629,11.9834888 L3.37942676,11.9834888 L3.37942676,1.45128756 L0,1.45128756 L0,0.207326796 L8.16867574,0.207326796 L8.16867574,1.45128756 Z M14.5750737,3.56602088 L10.6980626,13.331113 C10.0138842,15.072658 9.03944828,15.9434305 7.7954875,15.9434305 C7.44303195,15.9434305 7.15277444,15.9019652 6.92471497,15.8397672 L6.92471497,14.6372718 C7.21497248,14.7409352 7.48449731,14.7824005 7.71255679,14.7824005 C8.39673521,14.7824005 8.89431951,14.3677469 9.24677507,13.5591724 L9.91022081,11.9627561 L6.63445745,3.56602088 L8.12721038,3.56602088 L10.4078051,10.0346169 C10.4285378,10.1175476 10.4907358,10.3248744 10.5736666,10.67733 L10.6151319,10.67733 C10.6358646,10.5529339 10.6980626,10.3456071 10.7809934,10.0553496 L13.1652515,3.56602088 L14.5750737,3.56602088 Z M16.7727378,10.7602607 L16.7312723,10.7602607 L16.7312723,15.8397672 L15.3836483,15.8397672 L15.3836483,3.56602088 L16.7312723,3.56602088 L16.7312723,5.03804113 L16.7727378,5.03804113 C17.4361834,3.91847643 18.4106194,3.35869408 19.6753129,3.35869408 C20.7534122,3.35869408 21.603452,3.73188232 22.2046998,4.47825878 C22.8059475,5.22463524 23.1169377,6.24053654 23.1169377,7.50522999 C23.1169377,8.9150522 22.7644822,10.0346169 22.0803037,10.8846568 C21.3961253,11.7346966 20.4631547,12.1493502 19.281392,12.1493502 C18.2240253,12.1908156 17.3739854,11.7139639 16.7727378,10.7602607 Z M16.7520051,7.38083391 L16.7520051,8.56259665 C16.7520051,9.26750775 16.9800645,9.84802278 17.4361834,10.3248744 C17.8923025,10.801726 18.4520847,11.0505182 19.1569958,11.0505182 C19.9655704,11.0505182 20.6082834,10.739528 21.0851351,10.1175476 C21.541254,9.49556722 21.7693135,8.62479469 21.7693135,7.50522999 C21.7693135,6.57225942 21.5619867,5.82588294 21.1266004,5.30756596 C20.6912142,4.76851629 20.1106991,4.51972413 19.3643227,4.51972413 C18.5764809,4.51972413 17.9545005,4.78924897 17.4776489,5.32829864 C16.9800645,5.86734831 16.7520051,6.55152673 16.7520051,7.38083391 Z M31.3685441,8.1064777 L25.4389978,8.1064777 C25.4597304,9.03944828 25.7085226,9.76509206 26.1853742,10.283409 C26.6622259,10.801726 27.3256717,11.0505182 28.1757115,11.0505182 C29.1294148,11.0505182 30.0001873,10.739528 30.7880291,10.1175476 L30.7880291,11.3822411 C30.0416526,11.9212907 29.0672166,12.1908156 27.8647213,12.1908156 C26.6829586,12.1908156 25.749988,11.8176273 25.0658095,11.0505182 C24.3816311,10.283409 24.0499082,9.20530971 24.0499082,7.83695286 C24.0499082,6.53079405 24.4230964,5.45269472 25.1694729,4.64412022 C25.9158495,3.81481303 26.8280873,3.40015945 27.9269193,3.40015945 C29.0257513,3.40015945 29.8757912,3.752615 30.4770388,4.47825878 C31.0782866,5.18316988 31.3892768,6.1783385 31.3892768,7.44303195 L31.3685441,8.1064777 Z M29.9794546,6.96618033 C29.9794546,6.1783385 29.7928605,5.57709079 29.4196722,5.14170452 C29.046484,4.70631826 28.528167,4.49899146 27.885454,4.49899146 C27.2427409,4.49899146 26.7036913,4.72705093 26.268305,5.18316988 C25.8329187,5.63928883 25.5426611,6.24053654 25.4389978,6.96618033 L29.9794546,6.96618033 Z M32.0319899,11.5688352 L32.0319899,10.6358646 C32.8820297,11.1749143 33.7320696,11.4444391 34.6028421,11.4444391 C35.5150801,11.4444391 36.2199912,11.257845 36.6968428,10.8639241 C37.1736945,10.4700032 37.4017539,9.95168617 37.4017539,9.26750775 C37.4017539,8.66626004 37.2358925,8.18940841 36.9249023,7.81622019 C36.6139121,7.46376463 35.909001,6.96618033 34.8516343,6.34419994 C33.6491389,5.63928883 32.9027624,5.05877381 32.5917722,4.60265486 C32.2807821,4.12580323 32.1149206,3.58675356 32.1149206,2.98550586 C32.1149206,2.15619867 32.4466435,1.45128756 33.0893565,0.87077254 C33.7320696,0.290257513 34.6028421,0 35.6809414,0 C36.3858525,0 37.0907636,0.124396077 37.7749421,0.352455552 L37.7749421,1.20249541 C37.0907636,0.89150522 36.3443872,0.725643784 35.5565454,0.725643784 C34.7479709,0.725643784 34.1259905,0.932970579 33.6491389,1.32689149 C33.1722872,1.74154508 32.9442278,2.2391294 32.9442278,2.86110977 C32.9442278,3.46235748 33.1100892,3.93920911 33.4210794,4.29166467 C33.7320696,4.64412022 34.4369807,5.14170452 35.4943474,5.74295223 C36.5931794,6.36493262 37.3188232,6.92471497 37.6920114,7.40156659 C38.0651996,7.87841823 38.2310611,8.43820056 38.2310611,9.08091364 C38.2310611,9.99315154 37.9200709,10.7187953 37.2980905,11.2993103 C36.6761101,11.8798254 35.7846049,12.1493502 34.6443075,12.1493502 C34.2296539,12.1493502 33.773535,12.0871522 33.2344852,11.9627561 C32.6954356,11.83836 32.3015148,11.7346966 32.0319899,11.5688352 Z M45.2387067,11.6103005 C44.6167264,11.9834888 43.87035,12.1908156 42.9995773,12.1908156 C41.85928,12.1908156 40.9263094,11.7968947 40.2213983,11.0090528 C39.5164872,10.221211 39.1640316,9.20530971 39.1640316,7.91988358 C39.1640316,6.59299209 39.5579525,5.49416008 40.3457944,4.64412022 C41.1336362,3.79408036 42.1495375,3.35869408 43.3934982,3.35869408 C44.0362113,3.35869408 44.6581917,3.48309016 45.2594394,3.752615 L45.2594394,4.60265486 C44.6581917,4.22946662 43.994746,4.04287251 43.2898349,4.04287251 C42.2946662,4.04287251 41.5068244,4.39532806 40.884844,5.10023917 C40.2628636,5.80515027 39.9726061,6.73812084 39.9726061,7.85768554 C39.9726061,8.95651756 40.2628636,9.8272901 40.822646,10.4907358 C41.3824283,11.1541816 42.1288049,11.4859045 43.0410427,11.4859045 C43.8910826,11.4859045 44.6167264,11.257845 45.2387067,10.8224587 L45.2387067,11.6103005 Z M50.2560152,4.35386271 C50.007223,4.16726858 49.7169655,4.08433787 49.36451,4.08433787 C48.7010642,4.08433787 48.1412819,4.43679342 47.7058956,5.12097184 C47.2497766,5.80515027 47.0424499,6.7795862 47.0424499,8.04427965 L47.0424499,12.0042215 L46.2960733,12.0042215 L46.2960733,3.56602088 L47.0424499,3.56602088 L47.0424499,5.43196204 L47.0839153,5.43196204 C47.2705093,4.78924897 47.5814995,4.29166467 47.9961531,3.93920911 C48.4108067,3.58675356 48.8876584,3.40015945 49.4474406,3.40015945 C49.7584308,3.40015945 50.0486884,3.44162481 50.2767479,3.5452882 L50.2767479,4.35386271 L50.2560152,4.35386271 Z M51.4585106,1.45128756 C51.2926492,1.45128756 51.1475204,1.38908952 51.0231244,1.26469345 C50.8987282,1.14029737 50.8365302,0.995168617 50.8365302,0.808574501 C50.8365302,0.621980387 50.8987282,0.476851629 51.0231244,0.373188232 C51.1475204,0.269524833 51.2926492,0.207326796 51.4585106,0.207326796 C51.6243721,0.207326796 51.7695008,0.269524833 51.9146295,0.373188232 C52.0390257,0.476851629 52.1012237,0.621980387 52.1012237,0.808574501 C52.1012237,0.974435939 52.0390257,1.14029737 51.9146295,1.26469345 C51.7695008,1.38908952 51.6243721,1.45128756 51.4585106,1.45128756 Z M51.0853224,11.9834888 L51.0853224,3.56602088 L51.8316988,3.56602088 L51.8316988,11.9834888 L51.0853224,11.9834888 Z M54.4232837,10.4907358 L54.3818184,10.4907358 L54.3818184,15.8604998 L53.6354419,15.8604998 L53.6354419,3.56602088 L54.3818184,3.56602088 L54.3818184,5.30756596 L54.4232837,5.30756596 C54.7342739,4.68558557 55.1489276,4.20873394 55.7087099,3.87701107 C56.2684923,3.5452882 56.8904726,3.37942676 57.5539183,3.37942676 C58.6320177,3.37942676 59.4613249,3.752615 60.0625725,4.47825878 C60.6638203,5.22463524 60.9540778,6.21980387 60.9540778,7.48449731 C60.9540778,8.89431951 60.6016223,10.0346169 59.9174438,10.9053894 C59.2332654,11.776162 58.3210276,12.2115482 57.2014628,12.2115482 C55.9575021,12.1908156 55.0245315,11.6310332 54.4232837,10.4907358 Z M54.3818184,7.36010124 L54.3818184,8.41746789 C54.3818184,9.26750775 54.6513432,9.99315154 55.1696603,10.5943992 C55.7087099,11.195647 56.3928883,11.5066371 57.2636609,11.5066371 C58.1137007,11.5066371 58.8186118,11.1334489 59.3576614,10.4078051 C59.8967112,9.66142866 60.166236,8.7077254 60.166236,7.50522999 C60.166236,6.44786333 59.9174438,5.61855615 59.4198596,4.99657577 C58.9222752,4.37459538 58.2795621,4.06360518 57.450255,4.06360518 C56.475819,4.06360518 55.7087099,4.39532806 55.1696603,5.05877381 C54.6306106,5.72221955 54.3818184,6.46859602 54.3818184,7.36010124 Z M65.536,11.8590927 C65.1420791,12.0456868 64.7688909,12.1286175 64.437168,12.1286175 C63.1932072,12.1286175 62.5712269,11.3822411 62.5712269,9.88948814 L62.5712269,4.27093198 L61.0577412,4.27093198 L61.0577412,3.58675356 L62.5712269,3.58675356 L62.5712269,1.38908952 L62.9444151,1.26469345 L63.3176033,1.14029737 L63.3176033,3.58675356 L65.536,3.58675356 L65.536,4.27093198 L63.3176033,4.27093198 L63.3176033,9.8272901 C63.3176033,10.4078051 63.400534,10.8224587 63.5871281,11.0919836 C63.7737222,11.3615084 64.0847124,11.4859045 64.5200987,11.4859045 C64.8310889,11.4859045 65.1628118,11.3822411 65.536,11.1749143 L65.536,11.8590927 Z" id="Shape"></path>
                </g>
            </g>
        </g>
    </g>
</svg>