<?xml version="1.0" encoding="UTF-8"?>
<svg width="321px" height="321px" viewBox="0 0 321 321" version="1.1" xmlns="http://www.w3.org/2000/svg" xmlns:xlink="http://www.w3.org/1999/xlink">
    <!-- Generator: Sketch 51 (57462) - http://www.bohemiancoding.com/sketch -->
    <title>Group 7</title>
    <desc>Created with Sketch.</desc>
    <defs>
        <path d="M3.36003131,0.356252046 C1.2791806,3.33461134 0.238755242,5.61602063 0.238755242,7.20047996 C0.238755242,9.57716899 0.194706223,77.2132479 0.238755242,78.8467838 C0.282804262,80.4803201 0.886431341,81.0310557 2.13749107,81.0310557 C3.38855078,81.0310557 4.30689263,81.0310557 5.63820051,81.0310557 C6.96950837,81.0310557 7.6127613,80.4076226 7.6127613,78.8467838 C7.6127613,77.2859455 7.6127613,9.6488415 7.6127613,7.20047996 C7.6127613,5.56823898 6.57275424,3.28875099 4.49274017,0.362016094 L3.36003131,0.356252046 Z" id="path-1"></path>
        <path d="M3.36003131,0.356252046 C1.2791806,3.33461134 0.238755242,5.61602063 0.238755242,7.20047996 C0.238755242,9.57716899 0.194706223,77.2132479 0.238755242,78.8467838 C0.282804262,80.4803201 0.886431341,81.0310557 2.13749107,81.0310557 C3.38855078,81.0310557 4.30689263,81.0310557 5.63820051,81.0310557 C6.96950837,81.0310557 7.6127613,80.4076226 7.6127613,78.8467838 C7.6127613,77.2859455 7.6127613,9.6488415 7.6127613,7.20047996 C7.6127613,5.56823898 6.57275424,3.28875099 4.49274017,0.362016094 L3.36003131,0.356252046 Z" id="path-3"></path>
        <path d="M3.36003131,0.356252046 C1.2791806,3.33461134 0.238755242,5.61602063 0.238755242,7.20047996 C0.238755242,9.57716899 0.194706223,77.2132479 0.238755242,78.8467838 C0.282804262,80.4803201 0.886431341,81.0310557 2.13749107,81.0310557 C3.38855078,81.0310557 4.30689263,81.0310557 5.63820051,81.0310557 C6.96950837,81.0310557 7.6127613,80.4076226 7.6127613,78.8467838 C7.6127613,77.2859455 7.6127613,9.6488415 7.6127613,7.20047996 C7.6127613,5.56823898 6.57275424,3.28875099 4.49274017,0.362016094 L3.36003131,0.356252046 Z" id="path-5"></path>
        <polygon id="path-7" points="0 0 66.1410256 0 66.1410256 75.920729 46.9938448 95.1118881 0 95.1118881"></polygon>
        <polygon id="path-9" points="0 0 66.1410256 0 66.1410256 75.920729 46.9938448 95.1118881 0 95.1118881"></polygon>
        <polygon id="path-11" points="0 0 66.1410256 0 66.1410256 75.920729 46.9938448 95.1118881 0 95.1118881"></polygon>
        <polygon id="path-13" points="0 0 66.1410256 0 66.1410256 75.920729 46.9938448 95.1118881 0 95.1118881"></polygon>
        <polygon id="path-15" points="0 0 66.1410256 0 66.1410256 75.920729 46.9938448 95.1118881 0 95.1118881"></polygon>
        <polygon id="path-17" points="0 0 66.1410256 0 66.1410256 75.920729 46.9938448 95.1118881 0 95.1118881"></polygon>
        <polygon id="path-19" points="0 0 66.1410256 0 66.1410256 75.920729 46.9938448 95.1118881 0 95.1118881"></polygon>
        <polygon id="path-21" points="0 0 66.1410256 0 66.1410256 75.920729 46.9938448 95.1118881 0 95.1118881"></polygon>
        <polygon id="path-23" points="0 0 66.1410256 0 66.1410256 75.920729 46.9938448 95.1118881 0 95.1118881"></polygon>
        <polygon id="path-25" points="0 0 66.1410256 0 66.1410256 75.920729 46.9938448 95.1118881 0 95.1118881"></polygon>
        <polygon id="path-27" points="0 0 66.1410256 0 66.1410256 75.920729 46.9938448 95.1118881 0 95.1118881"></polygon>
        <polygon id="path-29" points="0 0 66.1410256 0 66.1410256 75.920729 46.9938448 95.1118881 0 95.1118881"></polygon>
    </defs>
    <g id="Home-Page" stroke="none" stroke-width="1" fill="none" fill-rule="evenodd">
        <g id="Home-Page---Desktop" transform="translate(-598.000000, -1300.000000)">
            <rect fill="#FFFFFF" x="0" y="0" width="1024" height="3513"></rect>
            <g id="Group-6" transform="translate(122.000000, 1300.000000)">
                <g id="Group-7" transform="translate(476.000000, 0.000000)">
                    <g id="Group-4">
                        <circle id="Oval-4" fill="#FCFBFB" cx="160.5" cy="160.5" r="160.5"></circle>
                        <circle id="Oval-4" fill="#FBF5F5" cx="161" cy="165" r="140"></circle>
                    </g>
                    <g id="pen" transform="translate(184.000000, 141.000000)">
                        <path d="M4.59484219,0.559790698 C4.36998081,0.555988285 4.17735192,1.00806593 4.01695542,1.91602362 L3.99056509,4.52559807 L5.19911925,4.52559807 L5.14840959,1.88916121 C5.00422599,1.00671661 4.81970352,0.563593111 4.59484219,0.559790698 Z" id="Path-8" fill="#C15D24" fill-rule="nonzero"></path>
                        <rect id="Rectangle-4" fill="#C15D24" fill-rule="nonzero" x="2.10480309" y="80.3478261" width="4.7826087" height="7.17391304" rx="2.39130435"></rect>
                        <g id="Path-8" transform="translate(0.670020, 2.391304)">
                            <g id="Mask" fill="#FECDB1" fill-rule="nonzero">
                                <path d="M3.36003131,0.356252046 C1.2791806,3.33461134 0.238755242,5.61602063 0.238755242,7.20047996 C0.238755242,9.57716899 0.194706223,77.2132479 0.238755242,78.8467838 C0.282804262,80.4803201 0.886431341,81.0310557 2.13749107,81.0310557 C3.38855078,81.0310557 4.30689263,81.0310557 5.63820051,81.0310557 C6.96950837,81.0310557 7.6127613,80.4076226 7.6127613,78.8467838 C7.6127613,77.2859455 7.6127613,9.6488415 7.6127613,7.20047996 C7.6127613,5.56823898 6.57275424,3.28875099 4.49274017,0.362016094 L3.36003131,0.356252046 Z" id="path-1"></path>
                            </g>
                            <g id="Path-10-Clipped">
                                <mask id="mask-2" fill="white">
                                    <use xlink:href="#path-1"></use>
                                </mask>
                                <g id="path-1"></g>
                                <path d="M5.18509865,30.1304348 C4.14930406,31.2659155 2.30350076,33.381659 2.39455111,34.6154012 C2.48560145,35.8491434 5.40681379,32.8279448 5.76544994,34.033526 C6.1240861,35.2391072 3.72716015,36.4971593 3.93932101,37.5886187 C4.15148187,38.680078 5.74564186,37.024291 5.97845528,37.719338 C6.13366428,38.1827026 5.86921203,39.1603146 5.18509865,40.6521739" id="Path-10" stroke="#EB8348" opacity="0.100000001" mask="url(#mask-2)"></path>
                            </g>
                            <g id="Rectangle-5-Clipped">
                                <mask id="mask-4" fill="white">
                                    <use xlink:href="#path-3"></use>
                                </mask>
                                <g id="path-1"></g>
                                <rect id="Rectangle-5" fill="#EA6012" fill-rule="nonzero" opacity="0.100000001" mask="url(#mask-4)" x="3.82608696" y="44.4782609" width="1" height="12.9130435"></rect>
                            </g>
                            <g id="Clipped">
                                <mask id="mask-6" fill="white">
                                    <use xlink:href="#path-5"></use>
                                </mask>
                                <g id="path-1"></g>
                                <path d="M0.228288698,7.19977261 L0.228288698,81.0310557 L1.65138961,81.0310557 C1.62785773,34.0165934 1.62197476,9.41079236 1.6337407,7.21365289 C1.64550664,5.01651346 2.38420714,2.48343514 3.84984222,-0.385581991 C1.84879031,1.053569 0.735156185,2.28388746 0.508939855,3.30537338 C0.282723527,4.3268593 0.18917314,5.62499238 0.228288698,7.19977261 Z" id="Shape" fill="#E16D2B" fill-rule="nonzero" style="mix-blend-mode: overlay;" mask="url(#mask-6)"></path>
                            </g>
                        </g>
                        <path d="M-4.64800841,65.1829311 L18.3262149,65.1829311 L20.8484835,65.1829311 L20.8484835,65.1829216 C21.0596306,65.1829216 21.2600555,65.2759381 21.3963652,65.4371918 C22.4846359,66.7246122 23.0220447,67.3703462 23.0085913,67.3743937 C22.9949277,67.3785044 21.8961149,67.3786904 19.7121529,67.3749518 L19.7121529,67.3749547 C19.5096181,67.374608 19.3166665,67.2886659 19.1809316,67.1383442 L18.2789691,66.1394529 L-4.64800841,66.1394529 C-4.9121446,66.1394529 -5.12626928,65.9253283 -5.12626928,65.661192 C-5.12626928,65.3970562 -4.9121446,65.1829311 -4.64800841,65.1829311 Z" id="Rectangle-12" fill="#C15D24" fill-rule="nonzero" transform="translate(8.941284, 66.280272) rotate(90.000000) translate(-8.941284, -66.280272) "></path>
                    </g>
                    <g id="checklist" transform="translate(102.000000, 72.000000)">
                        <g id="Mask" transform="translate(0.286656, 0.000000)" fill="#FECDB1" fill-rule="nonzero">
                            <polygon id="path-1" points="0 0 66.1410256 0 66.1410256 75.920729 46.9938448 95.1118881 0 95.1118881"></polygon>
                        </g>
                        <g id="Group-Clipped" transform="translate(0.286656, 0.000000)">
                            <mask id="mask-8" fill="white">
                                <use xlink:href="#path-7"></use>
                            </mask>
                            <g id="path-1"></g>
                            <g id="Group" mask="url(#mask-8)">
                                <g transform="translate(7.652681, 7.106061)">
                                    <g>
                                        <rect id="Rectangle-3" stroke="#EB8348" stroke-width="4" x="0" y="0.546620047" width="51.9289044" height="79.8065268"></rect>
                                        <path d="M11.5627773,0.543712493 L11.5627773,80.0794159" id="Line" stroke="#EB8348" stroke-width="4" stroke-linecap="square"></path>
                                        <path d="M0.43421028,11.7897139 L51.6139162,11.7897139" id="Line-2" stroke="#EB8348" stroke-width="4" stroke-linecap="square"></path>
                                        <path d="M0.43421028,23.2537817 L51.6139162,23.2537817" id="Line-2" stroke="#EB8348" stroke-width="4" stroke-linecap="square"></path>
                                        <path d="M0.43421028,34.7178495 L51.6139162,34.7178495" id="Line-2" stroke="#EB8348" stroke-width="4" stroke-linecap="square"></path>
                                        <path d="M0.43421028,46.1819174 L51.6139162,46.1819174" id="Line-2" stroke="#EB8348" stroke-width="4" stroke-linecap="square"></path>
                                        <path d="M0.43421028,57.6459855 L51.6139162,57.6459855" id="Line-2" stroke="#EB8348" stroke-width="4" stroke-linecap="square"></path>
                                        <path d="M0.43421028,69.1100531 L51.6139162,69.1100531" id="Line-2" stroke="#EB8348" stroke-width="4" stroke-linecap="square"></path>
                                    </g>
                                </g>
                            </g>
                        </g>
                        <g id="Rectangle-Clipped" transform="translate(0.286656, 0.000000)">
                            <mask id="mask-10" fill="white">
                                <use xlink:href="#path-9"></use>
                            </mask>
                            <g id="path-1"></g>
                            <rect id="Rectangle" fill="#EB8348" fill-rule="nonzero" mask="url(#mask-10)" x="22.4114219" y="11.479021" width="24.5979021" height="3.82634033" rx="1.91317016"></rect>
                        </g>
                        <g id="Rectangle-Copy-Clipped" transform="translate(0.286656, 0.000000)">
                            <mask id="mask-12" fill="white">
                                <use xlink:href="#path-11"></use>
                            </mask>
                            <g id="path-1"></g>
                            <rect id="Rectangle-Copy" fill="#EB8348" fill-rule="nonzero" mask="url(#mask-12)" x="22.4114219" y="22.958042" width="30.0641026" height="3.82634033" rx="1.91317016"></rect>
                        </g>
                        <g id="Rectangle-Copy-2-Clipped" transform="translate(0.286656, 0.000000)">
                            <mask id="mask-14" fill="white">
                                <use xlink:href="#path-13"></use>
                            </mask>
                            <g id="path-1"></g>
                            <rect id="Rectangle-Copy-2" fill="#EB8348" fill-rule="nonzero" mask="url(#mask-14)" x="22.4114219" y="33.8904429" width="22.4114219" height="3.82634033" rx="1.91317016"></rect>
                        </g>
                        <g id="Rectangle-Copy-3-Clipped" transform="translate(0.286656, 0.000000)">
                            <mask id="mask-16" fill="white">
                                <use xlink:href="#path-15"></use>
                            </mask>
                            <g id="path-1"></g>
                            <rect id="Rectangle-Copy-3" fill="#EB8348" fill-rule="nonzero" mask="url(#mask-16)" x="22.4114219" y="45.9160839" width="9.83916084" height="3.82634033" rx="1.91317016"></rect>
                        </g>
                        <g id="Rectangle-Copy-5-Clipped" transform="translate(0.286656, 0.000000)">
                            <mask id="mask-18" fill="white">
                                <use xlink:href="#path-17"></use>
                            </mask>
                            <g id="path-1"></g>
                            <rect id="Rectangle-Copy-5" fill="#EB8348" fill-rule="nonzero" mask="url(#mask-18)" x="34.983683" y="45.9160839" width="18.5850816" height="3.82634033" rx="1.91317016"></rect>
                        </g>
                        <g id="Rectangle-Copy-4-Clipped" transform="translate(0.286656, 0.000000)">
                            <mask id="mask-20" fill="white">
                                <use xlink:href="#path-19"></use>
                            </mask>
                            <g id="path-1"></g>
                            <rect id="Rectangle-Copy-4" fill="#EB8348" fill-rule="nonzero" mask="url(#mask-20)" x="22.4114219" y="57.3951049" width="18.5850816" height="3.82634033" rx="1.91317016"></rect>
                        </g>
                        <g id="Path-2-Clipped" transform="translate(0.286656, 0.000000)">
                            <mask id="mask-22" fill="white">
                                <use xlink:href="#path-21"></use>
                            </mask>
                            <g id="path-1"></g>
                            <polyline id="Path-2" stroke="#C86329" stroke-width="2" mask="url(#mask-22)" points="10.3857809 11.7926967 12.4324727 14.7587413 18.0384615 5.46620047"></polyline>
                        </g>
                        <g id="Path-2-Clipped" transform="translate(0.286656, 0.000000)">
                            <mask id="mask-24" fill="white">
                                <use xlink:href="#path-23"></use>
                            </mask>
                            <g id="path-1"></g>
                            <polyline id="Path-2" stroke="#C86329" stroke-width="2" mask="url(#mask-24)" points="10.3857809 22.7250976 12.4324727 25.6911422 18.0384615 16.3986014"></polyline>
                        </g>
                        <g id="Path-3-Clipped" transform="translate(0.286656, 0.000000)">
                            <mask id="mask-26" fill="white">
                                <use xlink:href="#path-25"></use>
                            </mask>
                            <g id="path-1"></g>
                        </g>
                        <g id="Path-3-Clipped" transform="translate(0.286656, 0.000000)">
                            <mask id="mask-28" fill="white">
                                <use xlink:href="#path-27"></use>
                            </mask>
                            <g id="path-1"></g>
                        </g>
                        <g id="Rectangle-2-Clipped" transform="translate(0.286656, 0.000000)">
                            <mask id="mask-30" fill="white">
                                <use xlink:href="#path-29"></use>
                            </mask>
                            <g id="path-1"></g>
                            <polygon id="Rectangle-2" fill="#E16D2B" fill-rule="nonzero" mask="url(#mask-30)" points="47.009324 75.9801865 66.1410256 75.9801865 47.009324 95.1118881"></polygon>
                        </g>
                    </g>
                    <g id="coffee" transform="translate(59.000000, 199.000000)" fill-rule="nonzero">
                        <circle id="Oval" fill="#FECDB1" cx="44.1284134" cy="42.9716312" r="38.8510638"></circle>
                        <circle id="Oval" fill="#FFFFFF" cx="39.4191935" cy="38.8510638" r="38.8510638"></circle>
                        <path d="M42.9511084,63.5744681 C54.7714143,63.5744681 64.654281,55.2793047 67.0959538,44.1927327 C67.2604687,43.4457414 70.1198081,44.0374669 71.5654661,43.0739902 C73.0111242,42.1105134 73.8329308,39.3744582 71.8241365,38.3468679 C71.1262531,37.9898687 69.6532474,37.7956235 69.0187972,37.9533226 C67.8270384,38.2495464 67.6745127,39.2373843 67.6745127,38.8510638 C67.6745127,25.1967047 56.6054676,14.1276596 42.9511084,14.1276596 C29.2967493,14.1276596 18.2277042,25.1967047 18.2277042,38.8510638 C18.2277042,52.505423 29.2967493,63.5744681 42.9511084,63.5744681 Z" id="Oval-3" fill="#FECDB1"></path>
                        <circle id="Oval-2" fill="#C15D24" cx="37.0645836" cy="35.9078014" r="18.8368794"></circle>
                        <circle id="Oval-2" fill="#E16D2B" cx="39.4191935" cy="37.6737589" r="18.8368794"></circle>
                        <path d="M61.6773212,33.5531915 L67.6745127,33.5531915 C69.6251351,33.5531915 71.2064276,35.1344836 71.2064276,37.0851064 C71.2064276,39.0357291 69.6251351,40.6170213 67.6745127,40.6170213 L61.340031,40.6170213 C59.1411562,52.0190758 49.1086053,60.6312057 37.0645836,60.6312057 C23.4102245,60.6312057 12.3411793,49.5621606 12.3411793,35.9078014 C12.3411793,22.2534423 23.4102245,11.1843972 37.0645836,11.1843972 C49.9247705,11.1843972 60.4916344,21.00328 61.6773212,33.5531915 Z M37.0645836,54.7446809 C47.4679049,54.7446809 55.901463,46.3111227 55.901463,35.9078014 C55.901463,25.5044802 47.4679049,17.070922 37.0645836,17.070922 C26.6612624,17.070922 18.2277042,25.5044802 18.2277042,35.9078014 C18.2277042,46.3111227 26.6612624,54.7446809 37.0645836,54.7446809 Z" id="Combined-Shape" fill="#EB8348"></path>
                    </g>
                    <circle id="Oval-6" fill="#E16D2B" cx="41" cy="55" r="6"></circle>
                    <circle id="Oval-6" fill="#E16D2B" cx="261" cy="313" r="8"></circle>
                    <g id="iphone" transform="translate(215.000000, 179.000000)" fill-rule="nonzero">
                        <rect id="shadow" fill="#EFC9B3" style="mix-blend-mode: overlay;" x="2.68571429" y="2.65714286" width="43.6428571" height="90.3428571" rx="10"></rect>
                        <g id="Group">
                            <rect id="Rectangle-5" fill="#FECDB1" x="0" y="0" width="43.6428571" height="90.3428571" rx="10"></rect>
                            <ellipse id="Oval-2" fill="#EB8348" cx="21.8214286" cy="84.0321429" rx="3.69285714" ry="3.65357143"></ellipse>
                            <rect id="Rectangle-12" fill="#C15D24" x="2.68571429" y="12.6214286" width="38.2714286" height="65.1"></rect>
                            <ellipse id="Oval" fill="#E16D2B" cx="21.8214286" cy="4.98214286" rx="1.00714286" ry="1"></ellipse>
                            <ellipse id="Oval-Copy" fill="#E16D2B" cx="16.1142857" cy="7.97142857" rx="1" ry="1"></ellipse>
                            <rect id="Rectangle-6" fill="#C15D24" x="18.1285714" y="7.30714286" width="7.38571429" height="1.32857143" rx="0.664285714"></rect>
                        </g>
                    </g>
                </g>
            </g>
        </g>
    </g>
</svg>