<?xml version="1.0" encoding="UTF-8"?>
<svg width="359px" height="304px" viewBox="0 0 359 304" version="1.1" xmlns="http://www.w3.org/2000/svg" xmlns:xlink="http://www.w3.org/1999/xlink">
    <!-- Generator: Sketch 51 (57462) - http://www.bohemiancoding.com/sketch -->
    <title>Group 19</title>
    <desc>Created with Sketch.</desc>
    <defs>
        <ellipse id="path-1" cx="25.5230769" cy="25.3721913" rx="25.4769231" ry="24.6550868"></ellipse>
        <filter x="-8.8%" y="-3.0%" width="111.8%" height="110.1%" filterUnits="objectBoundingBox" id="filter-2">
            <feOffset dx="-3" dy="2" in="SourceAlpha" result="shadowOffsetOuter1"></feOffset>
            <feColorMatrix values="0 0 0 0 0.23352466   0 0 0 0 0.231290217   0 0 0 0 0.231290217  0 0 0 0.440330616 0" type="matrix" in="shadowOffsetOuter1"></feColorMatrix>
        </filter>
    </defs>
    <g id="Home-Page" stroke="none" stroke-width="1" fill="none" fill-rule="evenodd">
        <g id="Home-Page---Desktop" transform="translate(-543.000000, -152.000000)">
            <rect fill="transparent" x="0" y="0" width="1024" height="3513"></rect>
            <g id="Group-19" transform="translate(543.000000, 152.000000)">
                <circle id="Oval-3" stroke="#FFF6F1" stroke-width="24" fill="#F8E4D9" cx="189" cy="162" r="125"></circle>
                <g id="illustrate-1">
                    <path d="M221,62 L221,75.3408726 L172,75.3408726 L172,93" id="Line-3" stroke="#EB8348" stroke-linecap="square" stroke-dasharray="2"></path>
                    <circle id="Oval-2" fill="#EB8348" cx="200" cy="257" r="1"></circle>
                    <g id="Group-3" transform="translate(91.000000, 106.000000)">
                        <g id="line-chart" transform="translate(0.714157, 0.194420)">
                            <path d="M193.760646,137.587572 L6.91995307,137.587572 C3.09800674,137.587572 0,134.511667 0,130.716988 L0,127.281502 C0,125.384357 1.54939533,123.846015 3.46017251,123.846015 L197.220818,123.846015 C199.131595,123.846015 200.680991,125.384357 200.680991,127.281502 L200.680991,130.716988 C200.680599,134.511667 197.582592,137.587572 193.760646,137.587572 Z" id="Shape" fill="#959CB3" fill-rule="nonzero"></path>
                            <path d="M112.042095,130.716988 L88.6388959,130.716988 C87.3285927,130.716988 86.1303884,129.981869 85.5444167,128.818286 L83.0402208,123.846404 L117.640378,123.846404 L115.136574,128.818286 C114.550602,129.981479 113.352398,130.716988 112.042095,130.716988 Z" id="Shape" fill="#707487" fill-rule="nonzero"></path>
                            <path d="M183.38052,0.174342762 L17.3000787,0.174342762 C11.5673551,0.174342762 6.91995307,4.78858857 6.91995307,10.4804128 L6.91995307,123.846015 L193.760646,123.846015 L193.760646,10.4804128 C193.760646,4.78858857 189.113244,0.174342762 183.38052,0.174342762 Z" id="Shape" fill="#39434E" fill-rule="nonzero"></path>
                            <rect id="Rectangle-47" fill="#495764" x="14.8942632" y="7.39400105" width="171.284027" height="110.910016"></rect>
                        </g>
                        <g id="browser" transform="translate(25.335286, 20.565648)" fill-rule="nonzero">
                            <path d="M34.4695805,4.88909457 L2.4621129,4.88909457 C1.10056446,4.88909457 0,3.79638194 0,2.44454729 C0,1.09271264 1.10056446,0 2.4621129,0 L34.4695805,0 C35.831129,0 36.9316934,1.09271264 36.9316934,2.44454729 C36.9316934,3.79638194 35.831129,4.88909457 34.4695805,4.88909457 Z" id="Shape" fill="#8697CB"></path>
                            <path d="M68.9391611,4.88909457 L44.3180321,4.88909457 C42.9564837,4.88909457 41.8559192,3.79638194 41.8559192,2.44454729 C41.8559192,1.09271264 42.9564837,0 44.3180321,0 L68.9391611,0 C70.3007095,0 71.401274,1.09271264 71.401274,2.44454729 C71.401274,3.79638194 70.3007095,4.88909457 68.9391611,4.88909457 Z" id="Shape" fill="#F0C419"></path>
                            <path d="M83.7118384,4.88909457 L78.7876126,4.88909457 C77.4260642,4.88909457 76.3254998,3.79638194 76.3254998,2.44454729 C76.3254998,1.09271264 77.4260642,0 78.7876126,0 L83.7118384,0 C85.0733869,0 86.1739513,1.09271264 86.1739513,2.44454729 C86.1739513,3.79638194 85.0733869,4.88909457 83.7118384,4.88909457 Z" id="Shape" fill="#4FBA6F"></path>
                            <path d="M96.0224029,14.6672837 L59.0907095,14.6672837 C57.7291611,14.6672837 56.6285966,13.5745711 56.6285966,12.2227364 C56.6285966,10.8709018 57.7291611,9.77818914 59.0907095,9.77818914 L96.0224029,9.77818914 C97.3839513,9.77818914 98.4845158,10.8709018 98.4845158,12.2227364 C98.4845158,13.5745711 97.3839513,14.6672837 96.0224029,14.6672837 Z" id="Shape" fill="#8697CB"></path>
                            <path d="M49.2422579,14.6672837 L14.7726774,14.6672837 C13.4111289,14.6672837 12.3105645,13.5745711 12.3105645,12.2227364 C12.3105645,10.8709018 13.4111289,9.77818914 14.7726774,9.77818914 L49.2422579,9.77818914 C50.6038063,9.77818914 51.7043708,10.8709018 51.7043708,12.2227364 C51.7043708,13.5745711 50.6038063,14.6672837 49.2422579,14.6672837 Z" id="Shape" fill="#E64C3C"></path>
                            <path d="M4.92422579,14.6672837 L2.4621129,14.6672837 C1.10056446,14.6672837 0,13.5745711 0,12.2227364 C0,10.8709018 1.10056446,9.77818914 2.4621129,9.77818914 L4.92422579,9.77818914 C6.28577422,9.77818914 7.38633869,10.8709018 7.38633869,12.2227364 C7.38633869,13.5745711 6.28577422,14.6672837 4.92422579,14.6672837 Z" id="Shape" fill="#E64C3C"></path>
                            <path d="M24.621129,24.4454729 L2.4621129,24.4454729 C1.10056446,24.4454729 0,23.3527602 0,22.0009256 C0,20.6490909 1.10056446,19.5563783 2.4621129,19.5563783 L24.621129,19.5563783 C25.9826774,19.5563783 27.0832418,20.6490909 27.0832418,22.0009256 C27.0832418,23.3527602 25.9826774,24.4454729 24.621129,24.4454729 Z" id="Shape" fill="#8697CB"></path>
                            <path d="M39.3938063,24.4454729 L34.4695805,24.4454729 C33.1080321,24.4454729 32.0074676,23.3527602 32.0074676,22.0009256 C32.0074676,20.6490909 33.1080321,19.5563783 34.4695805,19.5563783 L39.3938063,19.5563783 C40.7553548,19.5563783 41.8559192,20.6490909 41.8559192,22.0009256 C41.8559192,23.3527602 40.7553548,24.4454729 39.3938063,24.4454729 Z" id="Shape" fill="#F0C419"></path>
                            <path d="M83.7118384,24.4454729 L49.2422579,24.4454729 C47.8807095,24.4454729 46.780145,23.3527602 46.780145,22.0009256 C46.780145,20.6490909 47.8807095,19.5563783 49.2422579,19.5563783 L83.7118384,19.5563783 C85.0733869,19.5563783 86.1739513,20.6490909 86.1739513,22.0009256 C86.1739513,23.3527602 85.0733869,24.4454729 83.7118384,24.4454729 Z" id="Shape" fill="#4FBA6F"></path>
                            <path d="M34.4695805,34.223662 L2.4621129,34.223662 C1.10056446,34.223662 0,33.1309494 0,31.7791147 C0,30.4272801 1.10056446,29.3345674 2.4621129,29.3345674 L34.4695805,29.3345674 C35.831129,29.3345674 36.9316934,30.4272801 36.9316934,31.7791147 C36.9316934,33.1309494 35.831129,34.223662 34.4695805,34.223662 Z" id="Shape" fill="#F0C419"></path>
                            <path d="M68.9391611,34.223662 L44.3180321,34.223662 C42.9564837,34.223662 41.8559192,33.1309494 41.8559192,31.7791147 C41.8559192,30.4272801 42.9564837,29.3345674 44.3180321,29.3345674 L68.9391611,29.3345674 C70.3007095,29.3345674 71.401274,30.4272801 71.401274,31.7791147 C71.401274,33.1309494 70.3007095,34.223662 68.9391611,34.223662 Z" id="Shape" fill="#4FBA6F"></path>
                            <path d="M78.7876126,44.0018511 L59.0907095,44.0018511 C57.7291611,44.0018511 56.6285966,42.9091385 56.6285966,41.5573039 C56.6285966,40.2054692 57.7291611,39.1127566 59.0907095,39.1127566 L78.7876126,39.1127566 C80.1491611,39.1127566 81.2497255,40.2054692 81.2497255,41.5573039 C81.2497255,42.9091385 80.1491611,44.0018511 78.7876126,44.0018511 Z" id="Shape" fill="#F0C419"></path>
                            <path d="M49.2422579,44.0018511 L14.7726774,44.0018511 C13.4111289,44.0018511 12.3105645,42.9091385 12.3105645,41.5573039 C12.3105645,40.2054692 13.4111289,39.1127566 14.7726774,39.1127566 L49.2422579,39.1127566 C50.6038063,39.1127566 51.7043708,40.2054692 51.7043708,41.5573039 C51.7043708,42.9091385 50.6038063,44.0018511 49.2422579,44.0018511 Z" id="Shape" fill="#8697CB"></path>
                            <path d="M4.92422579,44.0018511 L2.4621129,44.0018511 C1.10056446,44.0018511 0,42.9091385 0,41.5573039 C0,40.2054692 1.10056446,39.1127566 2.4621129,39.1127566 L4.92422579,39.1127566 C6.28577422,39.1127566 7.38633869,40.2054692 7.38633869,41.5573039 C7.38633869,42.9091385 6.28577422,44.0018511 4.92422579,44.0018511 Z" id="Shape" fill="#4FBA6F"></path>
                            <path d="M24.621129,53.7800403 L2.4621129,53.7800403 C1.10056446,53.7800403 0,52.6873277 0,51.335493 C0,49.9836584 1.10056446,48.8909457 2.4621129,48.8909457 L24.621129,48.8909457 C25.9826774,48.8909457 27.0832418,49.9836584 27.0832418,51.335493 C27.0832418,52.6873277 25.9826774,53.7800403 24.621129,53.7800403 Z" id="Shape" fill="#F0C419"></path>
                            <path d="M39.3938063,53.7800403 L34.4695805,53.7800403 C33.1080321,53.7800403 32.0074676,52.6873277 32.0074676,51.335493 C32.0074676,49.9836584 33.1080321,48.8909457 34.4695805,48.8909457 L39.3938063,48.8909457 C40.7553548,48.8909457 41.8559192,49.9836584 41.8559192,51.335493 C41.8559192,52.6873277 40.7553548,53.7800403 39.3938063,53.7800403 Z" id="Shape" fill="#8697CB"></path>
                            <path d="M86.1739513,53.7800403 L49.2422579,53.7800403 C47.8807095,53.7800403 46.780145,52.6873277 46.780145,51.335493 C46.780145,49.9836584 47.8807095,48.8909457 49.2422579,48.8909457 L86.1739513,48.8909457 C87.5354998,48.8909457 88.6360642,49.9836584 88.6360642,51.335493 C88.6360642,52.6873277 87.5354998,53.7800403 86.1739513,53.7800403 Z" id="Shape" fill="#E64C3C"></path>
                            <path d="M34.4695805,63.5582294 L2.4621129,63.5582294 C1.10056446,63.5582294 0,62.4655168 0,61.1136821 C0,59.7618475 1.10056446,58.6691349 2.4621129,58.6691349 L34.4695805,58.6691349 C35.831129,58.6691349 36.9316934,59.7618475 36.9316934,61.1136821 C36.9316934,62.4655168 35.831129,63.5582294 34.4695805,63.5582294 Z" id="Shape" fill="#8697CB"></path>
                            <path d="M68.9391611,63.5582294 L44.3180321,63.5582294 C42.9564837,63.5582294 41.8559192,62.4655168 41.8559192,61.1136821 C41.8559192,59.7618475 42.9564837,58.6691349 44.3180321,58.6691349 L68.9391611,58.6691349 C70.3007095,58.6691349 71.401274,59.7618475 71.401274,61.1136821 C71.401274,62.4655168 70.3007095,63.5582294 68.9391611,63.5582294 Z" id="Shape" fill="#4FBA6F"></path>
                            <path d="M96.0224029,63.5582294 L78.7876126,63.5582294 C77.4260642,63.5582294 76.3254998,62.4655168 76.3254998,61.1136821 C76.3254998,59.7618475 77.4260642,58.6691349 78.7876126,58.6691349 L96.0224029,58.6691349 C97.3839513,58.6691349 98.4845158,59.7618475 98.4845158,61.1136821 C98.4845158,62.4655168 97.3839513,63.5582294 96.0224029,63.5582294 Z" id="Shape" fill="#E64C3C"></path>
                            <path d="M68.9391611,73.3364186 L59.0907095,73.3364186 C57.7291611,73.3364186 56.6285966,72.2437059 56.6285966,70.8918713 C56.6285966,69.5400366 57.7291611,68.447324 59.0907095,68.447324 L68.9391611,68.447324 C70.3007095,68.447324 71.401274,69.5400366 71.401274,70.8918713 C71.401274,72.2437059 70.3007095,73.3364186 68.9391611,73.3364186 Z" id="Shape" fill="#8697CB"></path>
                            <path d="M49.2422579,73.3364186 L14.7726774,73.3364186 C13.4111289,73.3364186 12.3105645,72.2437059 12.3105645,70.8918713 C12.3105645,69.5400366 13.4111289,68.447324 14.7726774,68.447324 L49.2422579,68.447324 C50.6038063,68.447324 51.7043708,69.5400366 51.7043708,70.8918713 C51.7043708,72.2437059 50.6038063,73.3364186 49.2422579,73.3364186 Z" id="Shape" fill="#E64C3C"></path>
                            <path d="M4.92422579,73.3364186 L2.4621129,73.3364186 C1.10056446,73.3364186 0,72.2437059 0,70.8918713 C0,69.5400366 1.10056446,68.447324 2.4621129,68.447324 L4.92422579,68.447324 C6.28577422,68.447324 7.38633869,69.5400366 7.38633869,70.8918713 C7.38633869,72.2437059 6.28577422,73.3364186 4.92422579,73.3364186 Z" id="Shape" fill="#F0C419"></path>
                            <path d="M24.621129,83.1146077 L2.4621129,83.1146077 C1.10056446,83.1146077 0,82.0218951 0,80.6700604 C0,79.3182258 1.10056446,78.2255131 2.4621129,78.2255131 L24.621129,78.2255131 C25.9826774,78.2255131 27.0832418,79.3182258 27.0832418,80.6700604 C27.0832418,82.0218951 25.9826774,83.1146077 24.621129,83.1146077 Z" id="Shape" fill="#4FBA6F"></path>
                            <path d="M39.3938063,83.1146077 L34.4695805,83.1146077 C33.1080321,83.1146077 32.0074676,82.0218951 32.0074676,80.6700604 C32.0074676,79.3182258 33.1080321,78.2255131 34.4695805,78.2255131 L39.3938063,78.2255131 C40.7553548,78.2255131 41.8559192,79.3182258 41.8559192,80.6700604 C41.8559192,82.0218951 40.7553548,83.1146077 39.3938063,83.1146077 Z" id="Shape" fill="#8697CB"></path>
                            <path d="M66.4770482,83.1146077 L49.2422579,83.1146077 C47.8807095,83.1146077 46.780145,82.0218951 46.780145,80.6700604 C46.780145,79.3182258 47.8807095,78.2255131 49.2422579,78.2255131 L66.4770482,78.2255131 C67.8385966,78.2255131 68.9391611,79.3182258 68.9391611,80.6700604 C68.9391611,82.0218951 67.8385966,83.1146077 66.4770482,83.1146077 Z" id="Shape" fill="#E64C3C"></path>
                            <path d="M78.7876126,83.1146077 L76.3254998,83.1146077 C74.9639513,83.1146077 73.8633869,82.0218951 73.8633869,80.6700604 C73.8633869,79.3182258 74.9639513,78.2255131 76.3254998,78.2255131 L78.7876126,78.2255131 C80.1491611,78.2255131 81.2497255,79.3182258 81.2497255,80.6700604 C81.2497255,82.0218951 80.1491611,83.1146077 78.7876126,83.1146077 Z" id="Shape" fill="#F0C419"></path>
                        </g>
                    </g>
                    <g id="Group" transform="translate(250.000000, 144.000000)">
                        <g id="Oval">
                            <use fill="black" fill-opacity="1" filter="url(#filter-2)" xlink:href="#path-1"></use>
                            <use fill="#F7DF1E" fill-rule="evenodd" xlink:href="#path-1"></use>
                        </g>
                        <g id="Group-5" transform="translate(11.723077, 17.153829)" fill="#000000" fill-rule="nonzero">
                            <path d="M1.88567111e-15,15.4497185 L3.19871394,13.5763493 C3.81581611,14.6351857 4.3771875,15.5310193 5.72368269,15.5310193 C7.01436418,15.5310193 7.82809976,15.042428 7.82809976,13.1419157 L7.82809976,0.217256901 L11.7560409,0.217256901 L11.7560409,13.1956882 C11.7560409,17.1327974 9.3713113,18.9248658 5.89203606,18.9248658 C2.74979928,18.9248658 0.925860577,17.349974 0,15.4493975" id="j"></path>
                            <path d="M13.8895673,15.042412 L17.0878666,13.2503435 C17.9297993,14.5809317 19.0240132,15.5583871 20.9599111,15.5583871 C22.5874651,15.5583871 23.6252849,14.7709171 23.6252849,13.6847771 C23.6252849,12.3814764 22.5591851,11.9198356 20.7634435,11.1597976 L19.7816863,10.7522503 C16.9477103,9.58490578 15.0677921,8.11868254 15.0677921,5.02331343 C15.0677921,2.17232824 17.3123654,0 20.8196719,0 C23.3167752,0 25.1124339,0.841820332 26.4029495,3.04119533 L23.3446406,4.94177187 C22.6712272,3.77434708 21.9419171,3.31278652 20.8196719,3.31278652 C19.6693125,3.31278652 18.9397536,4.018731 18.9397536,4.94177187 C18.9397536,6.08223015 19.6693125,6.54387097 21.3525974,7.2498957 L22.3345204,7.65712198 C25.6733906,9.04196417 27.5533089,10.4537729 27.5533089,13.6304428 C27.5533089,17.0518176 24.7756442,18.9251869 21.0440877,18.9251869 C17.396625,18.9251869 15.0397608,17.2418672 13.8895673,15.042412" id="s"></path>
                        </g>
                    </g>
                    <rect id="Rectangle-14" fill="#FECDB1" x="0" y="129" width="70" height="70" rx="4"></rect>
                    <rect id="Rectangle-14" fill="#FECDB1" x="301" y="246" width="58" height="58" rx="4"></rect>
                    <rect id="Rectangle-14" fill="#FECDB1" x="192" y="0" width="58" height="58" rx="4"></rect>
                    <g id="chat" transform="translate(36.000000, 169.000000) scale(-1, 1) translate(-36.000000, -169.000000) translate(17.000000, 151.000000)" fill-rule="nonzero">
                        <path d="M31.3392857,12.1686429 L31.3392857,25.7592857 C31.3392857,27.5097857 29.8983315,28.9285714 28.1211328,28.9285714 L14.3638393,28.9285714 L7.83482143,36 L7.83482143,28.9285714 L3.2181529,28.9285714 C1.44095424,28.9285714 0,27.5097857 0,25.7599286 L0,12.1692857 C0,10.4187857 1.44095424,9 3.2181529,9 L28.1204799,9 C29.8983315,9 31.3392857,10.4187857 31.3392857,12.1686429 Z" id="Shape" fill="#EB8348"></path>
                        <path d="M34.6501507,0 L9.74717076,0 C7.9699721,0 6.52901786,1.41878571 6.52901786,3.16928571 L6.52901786,9 L28.1211328,9 C29.8983315,9 31.3392857,10.4187857 31.3392857,12.1692857 L31.3392857,19.9285714 L34.6501507,19.9285714 C36.4273493,19.9285714 37.8683036,18.5097857 37.8683036,16.7592857 L37.8683036,3.16928571 C37.8683036,1.41878571 36.4273493,0 34.6501507,0 Z" id="Shape" fill="#E16D2B"></path>
                        <path d="M16.3225446,16.0810714 L7.18191964,16.0810714 C6.82086496,16.0810714 6.52901786,15.7930714 6.52901786,15.4382143 C6.52901786,15.0833571 6.82086496,14.7953571 7.18191964,14.7953571 L16.3225446,14.7953571 C16.6835993,14.7953571 16.9754464,15.0833571 16.9754464,15.4382143 C16.9754464,15.7930714 16.6835993,16.0810714 16.3225446,16.0810714 Z" id="Shape" fill="#FFFFFF"></path>
                        <path d="M24.8102679,19.9382143 L7.18191964,19.9382143 C6.82086496,19.9382143 6.52901786,19.6502143 6.52901786,19.2953571 C6.52901786,18.9405 6.82086496,18.6525 7.18191964,18.6525 L24.8102679,18.6525 C25.1713225,18.6525 25.4631696,18.9405 25.4631696,19.2953571 C25.4631696,19.6502143 25.1713225,19.9382143 24.8102679,19.9382143 Z" id="Shape" fill="#FFFFFF"></path>
                        <path d="M24.8102679,23.7953571 L7.18191964,23.7953571 C6.82086496,23.7953571 6.52901786,23.5073571 6.52901786,23.1525 C6.52901786,22.7976429 6.82086496,22.5096429 7.18191964,22.5096429 L24.8102679,22.5096429 C25.1713225,22.5096429 25.4631696,22.7976429 25.4631696,23.1525 C25.4631696,23.5073571 25.1713225,23.7953571 24.8102679,23.7953571 Z" id="Shape" fill="#FFFFFF"></path>
                    </g>
                    <g id="magic-book" transform="translate(203.000000, 16.000000)" fill-rule="nonzero">
                        <path d="M36,4.87612642 L36,25.1455611 C36,26.0334077 35.2728984,26.7531648 34.3759922,26.7531648 L18,26.7531648 L1.62400781,26.7531648 C0.727101563,26.7532344 0,26.0334077 0,25.1455611 L0,4.87612642 C0,3.9445696 0.762820313,3.18945455 1.70388281,3.18945455 L34.2960469,3.18945455 C35.2371797,3.18945455 36,3.9445696 36,4.87612642 Z" id="Shape" fill="#E16D2B"></path>
                        <path d="M34.0612734,3.85965483 L34.0612734,23.1664901 C34.0612734,24.0628281 33.3272109,24.7895455 32.4216563,24.7895455 L18,24.7895455 L3.57827344,24.7895455 C2.67278906,24.7895455 1.93865625,24.0628977 1.93865625,23.1664901 L1.93865625,3.85965483" id="Shape" fill="#C15D24"></path>
                        <g id="Group" transform="translate(1.898438, 0.000000)" fill="#EB8348">
                            <path d="M16.1017734,3.50447443 L16.1017734,24.7895455 L15.8585625,24.7895455 C15.3479531,23.5153366 14.0923828,22.6150313 12.6244688,22.6150313 L1.67976563,22.6150313 C0.774632813,22.6150313 0.0399375,21.8884531 0.0399375,20.9924631 L0.0399375,1.68555824 C0.0399375,0.788802557 0.774632813,0.0622940341 1.67976563,0.0622940341 L12.6244688,0.0622940341 C14.5449844,0.0622940341 16.1017734,1.60342756 16.1017734,3.50447443 Z" id="Shape"></path>
                            <path d="M32.1629063,1.68555824 L32.1629063,20.9924631 C32.1629063,21.8884531 31.4289141,22.6150313 30.5230781,22.6150313 L19.5790781,22.6150313 C19.3703906,22.6150313 19.1654297,22.6331974 18.9670781,22.6688338 C17.7688125,22.8790327 16.7828203,23.6964418 16.3449844,24.7895455 L16.1017734,24.7895455 L16.1017734,3.50447443 C16.1017734,1.8099375 17.3382891,0.401953125 18.9670781,0.115400568 C19.1662031,0.0804602273 19.3703906,0.0622940341 19.5790781,0.0622940341 L30.5230781,0.0622940341 C31.4289844,0.0622940341 32.1629063,0.788872159 32.1629063,1.68555824 Z" id="Shape"></path>
                        </g>
                        <path d="M20.8655156,0.115400568 L20.8655156,22.6688338 C19.66725,22.8790327 18.6812578,23.6964418 18.2434219,24.7895455 L18.0002109,24.7895455 L18.0002109,3.50447443 C18.0002109,1.8099375 19.2367266,0.401953125 20.8655156,0.115400568 Z" id="Shape" fill="#C15D24"></path>
                        <g id="Group" transform="translate(4.781250, 4.454545)" fill="#FFFFFF">
                            <path d="M9.46877344,1.15567614 L0.553640625,1.15567614 C0.249257813,1.15567614 0.0026015625,0.911441761 0.0026015625,0.610203125 C0.0026015625,0.308964489 0.249257812,0.0647301136 0.553640625,0.0647301136 L9.46877344,0.0647301136 C9.77315625,0.0647301136 10.0198125,0.308964489 10.0198125,0.610203125 C10.0198125,0.911441761 9.77308594,1.15567614 9.46877344,1.15567614 Z" id="Shape"></path>
                            <path d="M26.3084063,1.15567614 L17.3932734,1.15567614 C17.0888906,1.15567614 16.8422344,0.911441761 16.8422344,0.610203125 C16.8422344,0.308964489 17.0888906,0.0647301136 17.3932734,0.0647301136 L26.3084063,0.0647301136 C26.6127891,0.0647301136 26.8594453,0.308964489 26.8594453,0.610203125 C26.8594453,0.911441761 26.6127188,1.15567614 26.3084063,1.15567614 Z" id="Shape"></path>
                            <path d="M9.46877344,3.82534091 L0.553640625,3.82534091 C0.249257813,3.82534091 0.0026015625,3.58110653 0.0026015625,3.2798679 C0.0026015625,2.97862926 0.249257812,2.73439489 0.553640625,2.73439489 L9.46877344,2.73439489 C9.77315625,2.73439489 10.0198125,2.97862926 10.0198125,3.2798679 C10.0198125,3.58110653 9.77308594,3.82534091 9.46877344,3.82534091 Z" id="Shape"></path>
                            <path d="M9.46877344,9.16467045 L7.48863281,9.16467045 C7.18425,9.16467045 6.93759375,8.92043608 6.93759375,8.61919744 C6.93759375,8.31795881 7.18425,8.07372443 7.48863281,8.07372443 L9.46877344,8.07372443 C9.77315625,8.07372443 10.0198125,8.31795881 10.0198125,8.61919744 C10.0198125,8.92043608 9.77308594,9.16467045 9.46877344,9.16467045 Z" id="Shape"></path>
                            <path d="M5.65178906,9.16467045 L0.553640625,9.16467045 C0.249257812,9.16467045 0.0026015625,8.92043608 0.0026015625,8.61919744 C0.0026015625,8.31795881 0.249257812,8.07372443 0.553640625,8.07372443 L5.65178906,8.07372443 C5.95617187,8.07372443 6.20282812,8.31795881 6.20282812,8.61919744 C6.20282812,8.92043608 5.95610156,9.16467045 5.65178906,9.16467045 Z" id="Shape"></path>
                            <path d="M9.46877344,14.5040696 L0.553640625,14.5040696 C0.249257813,14.5040696 0.0026015625,14.2598352 0.0026015625,13.9585966 C0.0026015625,13.657358 0.249257812,13.4131236 0.553640625,13.4131236 L9.46877344,13.4131236 C9.77315625,13.4131236 10.0198125,13.657358 10.0198125,13.9585966 C10.0198125,14.2598352 9.77308594,14.5040696 9.46877344,14.5040696 Z" id="Shape"></path>
                            <path d="M9.46877344,6.49500568 L0.553640625,6.49500568 C0.249257813,6.49500568 0.0026015625,6.25077131 0.0026015625,5.94953267 C0.0026015625,5.64829403 0.249257812,5.40405966 0.553640625,5.40405966 L9.46877344,5.40405966 C9.77315625,5.40405966 10.0198125,5.64829403 10.0198125,5.94953267 C10.0198125,6.25077131 9.77308594,6.49500568 9.46877344,6.49500568 Z" id="Shape"></path>
                            <path d="M9.46877344,11.8344048 L0.553640625,11.8344048 C0.249257813,11.8344048 0.0026015625,11.5901705 0.0026015625,11.2889318 C0.0026015625,10.9876932 0.249257812,10.7434588 0.553640625,10.7434588 L9.46877344,10.7434588 C9.77315625,10.7434588 10.0198125,10.9876932 10.0198125,11.2889318 C10.0198125,11.5901705 9.77308594,11.8344048 9.46877344,11.8344048 Z" id="Shape"></path>
                            <path d="M26.3084063,3.82534091 L17.3932734,3.82534091 C17.0888906,3.82534091 16.8422344,3.58110653 16.8422344,3.2798679 C16.8422344,2.97862926 17.0888906,2.73439489 17.3932734,2.73439489 L26.3084063,2.73439489 C26.6127891,2.73439489 26.8594453,2.97862926 26.8594453,3.2798679 C26.8594453,3.58110653 26.6127188,3.82534091 26.3084063,3.82534091 Z" id="Shape"></path>
                            <path d="M26.3084063,9.16467045 L17.3932734,9.16467045 C17.0888906,9.16467045 16.8422344,8.92043608 16.8422344,8.61919744 C16.8422344,8.31795881 17.0888906,8.07372443 17.3932734,8.07372443 L26.3084063,8.07372443 C26.6127891,8.07372443 26.8594453,8.31795881 26.8594453,8.61919744 C26.8594453,8.92043608 26.6127188,9.16467045 26.3084063,9.16467045 Z" id="Shape"></path>
                            <path d="M26.3084063,14.5040696 L17.3932734,14.5040696 C17.0888906,14.5040696 16.8422344,14.2598352 16.8422344,13.9585966 C16.8422344,13.657358 17.0888906,13.4131236 17.3932734,13.4131236 L26.3084063,13.4131236 C26.6127891,13.4131236 26.8594453,13.657358 26.8594453,13.9585966 C26.8594453,14.2598352 26.6127188,14.5040696 26.3084063,14.5040696 Z" id="Shape"></path>
                            <path d="M26.3084063,6.49500568 L17.3932734,6.49500568 C17.0888906,6.49500568 16.8422344,6.25077131 16.8422344,5.94953267 C16.8422344,5.64829403 17.0888906,5.40405966 17.3932734,5.40405966 L26.3084063,5.40405966 C26.6127891,5.40405966 26.8594453,5.64829403 26.8594453,5.94953267 C26.8594453,6.25077131 26.6127188,6.49500568 26.3084063,6.49500568 Z" id="Shape"></path>
                            <path d="M18.6887109,11.8344048 L17.3932734,11.8344048 C17.0888906,11.8344048 16.8422344,11.5901705 16.8422344,11.2889318 C16.8422344,10.9876932 17.0888906,10.7434588 17.3932734,10.7434588 L18.6887109,10.7434588 C18.9930938,10.7434588 19.23975,10.9876932 19.23975,11.2889318 C19.2396797,11.5901705 18.9930938,11.8344048 18.6887109,11.8344048 Z" id="Shape"></path>
                            <path d="M26.3084063,11.8344048 L20.5254844,11.8344048 C20.2211016,11.8344048 19.9744453,11.5901705 19.9744453,11.2889318 C19.9744453,10.9876932 20.2211016,10.7434588 20.5254844,10.7434588 L26.3084063,10.7434588 C26.6127891,10.7434588 26.8594453,10.9876932 26.8594453,11.2889318 C26.8594453,11.5901705 26.6127188,11.8344048 26.3084063,11.8344048 Z" id="Shape"></path>
                        </g>
                    </g>
                    <g id="browser" transform="translate(314.000000, 261.000000)" fill-rule="nonzero">
                        <rect id="Rectangle-path" fill="#EB8348" x="0" y="0" width="32" height="31"></rect>
                        <rect id="Rectangle-path" fill="#C15D24" x="0" y="0" width="32" height="6.4137931"></rect>
                        <ellipse id="Oval" fill="#EB8348" cx="3.31034483" cy="3.20689655" rx="1.65517241" ry="1.60344828"></ellipse>
                        <ellipse id="Oval" fill="#EB8348" cx="8.27586207" cy="3.20689655" rx="1.65517241" ry="1.60344828"></ellipse>
                        <ellipse id="Oval" fill="#EB8348" cx="13.2413793" cy="3.20689655" rx="1.65517241" ry="1.60344828"></ellipse>
                        <rect id="Rectangle-path" fill="#E16D2B" x="2.75862069" y="9.0862069" width="26.4827586" height="6.4137931"></rect>
                        <rect id="Rectangle-path" fill="#FFFFFF" x="17.1034483" y="18.1724138" width="12.137931" height="5.34482759"></rect>
                        <path d="M29.2413793,26.1896552 L17.1034483,26.1896552 C16.7988966,26.1896552 16.5517241,25.9502069 16.5517241,25.6551724 C16.5517241,25.3601379 16.7988966,25.1206897 17.1034483,25.1206897 L29.2413793,25.1206897 C29.545931,25.1206897 29.7931034,25.3601379 29.7931034,25.6551724 C29.7931034,25.9502069 29.545931,26.1896552 29.2413793,26.1896552 Z" id="Shape" fill="#FFFFFF"></path>
                        <rect id="Rectangle-path" fill="#FFFFFF" x="2.75862069" y="18.1724138" width="12.137931" height="5.34482759"></rect>
                        <path d="M14.8965517,26.1896552 L2.75862069,26.1896552 C2.45406897,26.1896552 2.20689655,25.9502069 2.20689655,25.6551724 C2.20689655,25.3601379 2.45406897,25.1206897 2.75862069,25.1206897 L14.8965517,25.1206897 C15.2011034,25.1206897 15.4482759,25.3601379 15.4482759,25.6551724 C15.4482759,25.9502069 15.2011034,26.1896552 14.8965517,26.1896552 Z" id="Shape" fill="#FFFFFF"></path>
                    </g>
                    <path d="M35,203 L35,236 L81,236" id="Line-2" stroke="#EB8348" stroke-linecap="square" stroke-dasharray="2"></path>
                    <path d="M200,260 L200,282 L292,282" id="Line-2" stroke="#EB8348" stroke-linecap="square" stroke-dasharray="2"></path>
                </g>
                <circle id="Oval-7" fill="#E16D2B" cx="91" cy="295" r="9"></circle>
                <circle id="Oval-7" fill="#E16D2B" cx="309" cy="52" r="5"></circle>
            </g>
        </g>
    </g>
</svg>