<?xml version="1.0" encoding="UTF-8"?>
<svg width="321px" height="321px" viewBox="0 0 321 321" version="1.1" xmlns="http://www.w3.org/2000/svg" xmlns:xlink="http://www.w3.org/1999/xlink">
    <!-- Generator: Sketch 51 (57462) - http://www.bohemiancoding.com/sketch -->
    <title>Group 15</title>
    <desc>Created with Sketch.</desc>
    <defs>
        <path d="M4.85030919,0 C1.87443962,0 0,2.17971015 0,4.10773852 L0,107.046212 C0,109.848827 1.64743745,112.234408 4.85030919,112.234408 L158.721485,112.234408 C161.437858,112.234408 163.5304,110.028422 163.5304,107.046212 L163.5304,4.10773852 C163.5304,1.49359042 161.81347,0 158.721485,0 L4.85030919,0 Z" id="path-1"></path>
        <linearGradient x1="27.809341%" y1="-12.2893643%" x2="72.4362479%" y2="109.617227%" id="linearGradient-3">
            <stop stop-color="#252C3B" offset="2.03683036%"></stop>
            <stop stop-color="#252C3B" stop-opacity="0" offset="100%"></stop>
        </linearGradient>
        <path d="M2.77055458,2.55542648e-14 C5.37347112,-4.3904443e-14 186.313756,5.33141489e-14 188.99448,2.55542648e-14 C191.675204,1.20284404e-15 192.138645,1.90146861 191.675204,3.98832673 C191.211762,6.07518481 178.127604,58.1182324 177.617467,60.1455739 C177.277375,61.4971346 176.152299,62.3651267 174.242238,62.7495508 L18.511651,62.7495508 C16.0560898,62.7495508 14.579236,61.7025027 14.0810896,59.6084053 C13.3338701,56.4672597 0.654130773,5.92706098 0.167638031,3.98832673 C-0.318854708,2.04959246 0.167638031,9.61933482e-14 2.77055458,2.55542648e-14 Z" id="path-4"></path>
        <rect id="path-6" x="0" y="0" width="43.6507675" height="56.2003631" rx="2"></rect>
        <path d="M2.58451396,0 L0.0153504157,5.89110918 C-0.00511680525,39.9094341 -0.00511680525,57.315454 0.0153504157,58.1091685 C0.0460512477,59.2997407 0.46676103,59.701134 1.33871175,59.701134 C2.21066246,59.701134 2.8507189,59.701134 3.77860015,59.701134 C4.70648138,59.701134 5.15480918,59.2467565 5.15480918,58.1091685 C5.15480918,57.3507768 5.15480918,39.9447569 5.15480918,5.89110918 L2.58451396,0 Z" id="path-8"></path>
        <path d="M2.58451396,0 L0.0153504157,5.89110918 C-0.00511680525,39.9094341 -0.00511680525,57.315454 0.0153504157,58.1091685 C0.0460512477,59.2997407 0.46676103,59.701134 1.33871175,59.701134 C2.21066246,59.701134 2.8507189,59.701134 3.77860015,59.701134 C4.70648138,59.701134 5.15480918,59.2467565 5.15480918,58.1091685 C5.15480918,57.3507768 5.15480918,39.9447569 5.15480918,5.89110918 L2.58451396,0 Z" id="path-10"></path>
        <path d="M2.58451396,0 L0.0153504157,5.89110918 C-0.00511680525,39.9094341 -0.00511680525,57.315454 0.0153504157,58.1091685 C0.0460512477,59.2997407 0.46676103,59.701134 1.33871175,59.701134 C2.21066246,59.701134 2.8507189,59.701134 3.77860015,59.701134 C4.70648138,59.701134 5.15480918,59.2467565 5.15480918,58.1091685 C5.15480918,57.3507768 5.15480918,39.9447569 5.15480918,5.89110918 L2.58451396,0 Z" id="path-12"></path>
    </defs>
    <g id="Home-Page" stroke="none" stroke-width="1" fill="none" fill-rule="evenodd">
        <g id="Home-Page---Desktop" transform="translate(-106.000000, -842.000000)">
            <rect fill="#FFFFFF" x="0" y="0" width="1024" height="3513"></rect>
            <g id="Group-8" transform="translate(106.000000, 842.000000)">
                <g id="Group-15">
                    <g id="Group-4">
                        <circle id="Oval-4" fill="#FCFBFB" cx="160.5" cy="160.5" r="160.5"></circle>
                        <circle id="Oval-4" fill="#FBF5F5" cx="161" cy="161" r="140"></circle>
                    </g>
                    <g id="Group-3" transform="translate(55.000000, 86.000000)">
                        <g id="Hands-typing">
                            <g id="macbook-pro" transform="translate(0.000000, -0.000000)">
                                <g id="Group" transform="translate(0.000000, 0.000000)">
                                    <g id="Rectangle" transform="translate(14.000000, 65.000000)">
                                        <g id="Mask" fill="#FECDB1" fill-rule="nonzero">
                                            <g id="path-2-link">
                                                <path d="M4.85030919,0 C1.87443962,0 0,2.17971015 0,4.10773852 L0,107.046212 C0,109.848827 1.64743745,112.234408 4.85030919,112.234408 L158.721485,112.234408 C161.437858,112.234408 163.5304,110.028422 163.5304,107.046212 L163.5304,4.10773852 C163.5304,1.49359042 161.81347,0 158.721485,0 L4.85030919,0 Z" id="path-2"></path>
                                            </g>
                                        </g>
                                        <g id="Clipped">
                                            <mask id="mask-2" fill="white">
                                                <use xlink:href="#path-1"></use>
                                            </mask>
                                            <g id="path-2"></g>
                                            <rect id="Rectangle-path" fill="#FECDB1" fill-rule="nonzero" mask="url(#mask-2)" x="70" y="110" width="23.0620138" height="3.37111156" rx="1.68555578"></rect>
                                        </g>
                                    </g>
                                    <path d="M63.2374036,129 L129.688671,129 C130.677488,129 131.186041,129.669015 131.186041,130.456118 L131.186041,170.704064 C131.186041,171.451273 130.779692,172.127416 129.765856,172.127416 C128.752019,172.127416 64.7724737,172.154969 63.4509983,172.127416 C62.5700148,172.109047 62.0863487,171.638066 62,170.714472 L62,130.456118 C62,129.53837 62.4124681,129.052997 63.2374036,129 Z" id="Rectangle-14" fill="#FFF8F4" fill-rule="nonzero"></path>
                                    <rect id="Rectangle-2" fill="#EB8348" fill-rule="nonzero" x="162" y="77" width="14.0622035" height="48.8811176"></rect>
                                    <rect id="Rectangle-2-Copy-2" fill="#EB8348" fill-rule="nonzero" x="16" y="77" width="14.0622035" height="48.8811176"></rect>
                                    <rect id="Rectangle-3" fill="#C86329" fill-rule="nonzero" x="32" y="77" width="128.247296" height="5.61851926" rx="2"></rect>
                                    <g id="Group-20" transform="translate(32.000000, 83.000000)" fill="#C86329" fill-rule="nonzero">
                                        <g id="Group" transform="translate(0.000000, 35.000000)">
                                            <rect id="Rectangle-17-Copy-59" x="94" y="0" width="7.87483398" height="7.86592697" rx="2"></rect>
                                            <rect id="Rectangle-17-Copy-60" x="102" y="0" width="7.87483398" height="7.86592697" rx="2"></rect>
                                            <rect id="Rectangle-17-Copy-61" x="111" y="0" width="7.87483398" height="7.86592697" rx="2"></rect>
                                            <rect id="Rectangle-17-Copy-62" x="120" y="0" width="7.87483398" height="7.86592697" rx="2"></rect>
                                            <rect id="Rectangle-17-Copy-58" x="82" y="0" width="10.1247865" height="7.86592697" rx="2"></rect>
                                            <rect id="Rectangle-17-Copy-53" x="0" y="0" width="7.87483398" height="7.86592697" rx="2"></rect>
                                            <rect id="Rectangle-17-Copy-54" x="9" y="0" width="7.87483398" height="7.86592697" rx="2"></rect>
                                            <rect id="Rectangle-17-Copy-55" x="18" y="0" width="7.87483398" height="7.86592697" rx="2"></rect>
                                            <rect id="Rectangle-17-Copy-56" x="26" y="0" width="10.1247865" height="7.86592697" rx="2"></rect>
                                            <rect id="Rectangle-17-Copy-57" x="38" y="0" width="43.874075" height="7.86592697" rx="2"></rect>
                                        </g>
                                        <g id="Group-2" transform="translate(0.000000, 26.000000)">
                                            <rect id="Rectangle-17-Copy-42" x="100" y="0" width="7.87483398" height="7.86592697" rx="2"></rect>
                                            <rect id="Rectangle-17-Copy-43" x="91" y="0" width="7.87483398" height="7.86592697" rx="2"></rect>
                                            <rect id="Rectangle-17-Copy-44" x="82" y="0" width="7.87483398" height="7.86592697" rx="2"></rect>
                                            <rect id="Rectangle-17-Copy-45" x="73" y="0" width="7.87483398" height="7.86592697" rx="2"></rect>
                                            <rect id="Rectangle-17-Copy-46" x="64" y="0" width="7.87483398" height="7.86592697" rx="2"></rect>
                                            <rect id="Rectangle-17-Copy-47" x="56" y="0" width="7.87483398" height="7.86592697" rx="2"></rect>
                                            <rect id="Rectangle-17-Copy-48" x="47" y="0" width="7.87483398" height="7.86592697" rx="2"></rect>
                                            <rect id="Rectangle-17-Copy-49" x="38" y="0" width="7.87483398" height="7.86592697" rx="2"></rect>
                                            <rect id="Rectangle-17-Copy-50" x="29" y="0" width="7.87483398" height="7.86592697" rx="2"></rect>
                                            <rect id="Rectangle-17-Copy-51" x="20" y="0" width="7.87483398" height="7.86592697" rx="2"></rect>
                                            <rect id="Rectangle-17-Copy-52" x="0" y="0" width="19.1245968" height="7.86592697" rx="2"></rect>
                                            <rect id="Rectangle-17-Copy-41" x="109" y="0" width="19.1245968" height="7.86592697" rx="2"></rect>
                                        </g>
                                        <g id="Group-3" transform="translate(0.000000, 18.000000)">
                                            <rect id="Rectangle-17-Copy-28" x="15" y="0" width="7.87483398" height="7.86592697" rx="2"></rect>
                                            <rect id="Rectangle-17-Copy-30" x="24" y="0" width="7.87483398" height="7.86592697" rx="2"></rect>
                                            <rect id="Rectangle-17-Copy-31" x="33" y="0" width="7.87483398" height="7.86592697" rx="2"></rect>
                                            <rect id="Rectangle-17-Copy-32" x="42" y="0" width="7.87483398" height="7.86592697" rx="2"></rect>
                                            <rect id="Rectangle-17-Copy-33" x="51" y="0" width="7.87483398" height="7.86592697" rx="2"></rect>
                                            <rect id="Rectangle-17-Copy-34" x="60" y="0" width="7.87483398" height="7.86592697" rx="2"></rect>
                                            <rect id="Rectangle-17-Copy-35" x="69" y="0" width="7.87483398" height="7.86592697" rx="2"></rect>
                                            <rect id="Rectangle-17-Copy-36" x="77" y="0" width="7.87483398" height="7.86592697" rx="2"></rect>
                                            <rect id="Rectangle-17-Copy-37" x="86" y="0" width="7.87483398" height="7.86592697" rx="2"></rect>
                                            <rect id="Rectangle-17-Copy-38" x="95" y="0" width="7.87483398" height="7.86592697" rx="2"></rect>
                                            <rect id="Rectangle-17-Copy-39" x="104" y="0" width="7.87483398" height="7.86592697" rx="2"></rect>
                                            <rect id="Rectangle-17-Copy-40" x="113" y="0" width="15.1871798" height="7.86592697" rx="2"></rect>
                                            <rect id="Rectangle-17-Copy-29" x="0" y="0" width="14.6246917" height="7.86592697" rx="2"></rect>
                                        </g>
                                        <g id="Group-4" transform="translate(0.000000, 9.000000)">
                                            <rect id="Rectangle-17-Copy-14" x="120" y="0" width="7.87483398" height="7.86592697" rx="2"></rect>
                                            <rect id="Rectangle-17-Copy-15" x="111" y="0" width="7.87483398" height="7.86592697" rx="2"></rect>
                                            <rect id="Rectangle-17-Copy-16" x="102" y="0" width="7.87483398" height="7.86592697" rx="2"></rect>
                                            <rect id="Rectangle-17-Copy-17" x="93" y="0" width="7.87483398" height="7.86592697" rx="2"></rect>
                                            <rect id="Rectangle-17-Copy-18" x="76" y="0" width="7.87483398" height="7.86592697" rx="2"></rect>
                                            <rect id="Rectangle-17-Copy-20" x="67" y="0" width="7.87483398" height="7.86592697" rx="2"></rect>
                                            <rect id="Rectangle-17-Copy-21" x="58" y="0" width="7.87483398" height="7.86592697" rx="2"></rect>
                                            <rect id="Rectangle-17-Copy-22" x="49" y="0" width="7.87483398" height="7.86592697" rx="2"></rect>
                                            <rect id="Rectangle-17-Copy-23" x="40" y="0" width="7.87483398" height="7.86592697" rx="2"></rect>
                                            <rect id="Rectangle-17-Copy-24" x="31" y="0" width="7.87483398" height="7.86592697" rx="2"></rect>
                                            <rect id="Rectangle-17-Copy-25" x="22" y="0" width="7.87483398" height="7.86592697" rx="2"></rect>
                                            <rect id="Rectangle-17-Copy-26" x="13" y="0" width="7.87483398" height="7.86592697" rx="2"></rect>
                                            <rect id="Rectangle-17-Copy-27" x="0" y="0" width="12.3747391" height="7.86592697" rx="2"></rect>
                                            <rect id="Rectangle-17-Copy-19" x="85" y="0" width="7.87483398" height="7.86592697" rx="2"></rect>
                                        </g>
                                        <g id="Group-5">
                                            <rect id="Rectangle-17" x="0" y="0" width="7.87483398" height="7.86592697" rx="2"></rect>
                                            <rect id="Rectangle-17-Copy" x="9" y="0" width="7.87483398" height="7.86592697" rx="2"></rect>
                                            <rect id="Rectangle-17-Copy-2" x="18" y="0" width="7.87483398" height="7.86592697" rx="2"></rect>
                                            <rect id="Rectangle-17-Copy-3" x="27" y="0" width="7.87483398" height="7.86592697" rx="2"></rect>
                                            <rect id="Rectangle-17-Copy-4" x="35" y="0" width="7.87483398" height="7.86592697" rx="2"></rect>
                                            <rect id="Rectangle-17-Copy-5" x="44" y="0" width="7.87483398" height="7.86592697" rx="2"></rect>
                                            <rect id="Rectangle-17-Copy-6" x="53" y="0" width="7.87483398" height="7.86592697" rx="2"></rect>
                                            <rect id="Rectangle-17-Copy-7" x="62" y="0" width="7.87483398" height="7.86592697" rx="2"></rect>
                                            <rect id="Rectangle-17-Copy-8" x="71" y="0" width="7.87483398" height="7.86592697" rx="2"></rect>
                                            <rect id="Rectangle-17-Copy-9" x="80" y="0" width="7.87483398" height="7.86592697" rx="2"></rect>
                                            <rect id="Rectangle-17-Copy-10" x="89" y="0" width="7.87483398" height="7.86592697" rx="2"></rect>
                                            <rect id="Rectangle-17-Copy-11" x="98" y="0" width="7.87483398" height="7.86592697" rx="2"></rect>
                                            <rect id="Rectangle-17-Copy-12" x="107" y="0" width="7.87483398" height="7.86592697" rx="2"></rect>
                                            <rect id="Rectangle-17-Copy-13" x="116" y="0" width="12.3747391" height="7.86592697" rx="2"></rect>
                                        </g>
                                    </g>
                                    <g id="Group-6" transform="translate(0.000000, 0.000000)">
                                        <path d="M2.77055458,0 L188.99448,0 C191.675204,0 192.138645,1.92587025 191.675204,4.03950912 C191.211762,6.15314798 178.127604,58.8640666 177.617467,60.9174247 C177.277375,62.2863303 176.152299,63.1654617 174.242238,63.5548189 L18.511651,63.5548189 C16.0560898,63.5548189 14.579236,62.4943335 14.0810896,60.3733633 C13.3338701,57.1919071 0.654130773,6.00312323 0.167638031,4.03950912 C-0.318854708,2.07589498 0.167638031,0 2.77055458,0 Z" id="Path-85" fill="#EB8348" fill-rule="nonzero"></path>
                                        <g id="Rectangle-4" transform="translate(0.000000, 2.000000)">
                                            <g id="Mask" fill="#C15D24" fill-rule="nonzero">
                                                <g id="path-7-link">
                                                    <path d="M2.77055458,2.55542648e-14 C5.37347112,-4.3904443e-14 186.313756,5.33141489e-14 188.99448,2.55542648e-14 C191.675204,1.20284404e-15 192.138645,1.90146861 191.675204,3.98832673 C191.211762,6.07518481 178.127604,58.1182324 177.617467,60.1455739 C177.277375,61.4971346 176.152299,62.3651267 174.242238,62.7495508 L18.511651,62.7495508 C16.0560898,62.7495508 14.579236,61.7025027 14.0810896,59.6084053 C13.3338701,56.4672597 0.654130773,5.92706098 0.167638031,3.98832673 C-0.318854708,2.04959246 0.167638031,9.61933482e-14 2.77055458,2.55542648e-14 Z" id="path-7"></path>
                                                </g>
                                            </g>
                                            <g id="Clipped">
                                                <mask id="mask-5" fill="white">
                                                    <use xlink:href="#path-4"></use>
                                                </mask>
                                                <g id="path-7"></g>
                                                <rect id="Rectangle-path" fill="#C86329" fill-rule="nonzero" mask="url(#mask-5)" x="13" y="60" width="165.371514" height="5.61851926"></rect>
                                            </g>
                                        </g>
                                    </g>
                                </g>
                            </g>
                        </g>
                    </g>
                    <g id="book" transform="translate(259.000000, 163.000000)">
                        <g id="Group">
                            <g id="Mask" transform="translate(1.000000, 1.000000)" fill="#FECDB1" fill-rule="nonzero">
                                <rect id="path-1" x="0" y="0" width="42.8699455" height="55.4383562" rx="4"></rect>
                            </g>
                            <g id="Rectangle-4-Clipped" transform="translate(15.000000, 8.000000)" fill="#FFFFFF" fill-rule="nonzero" stroke="#FECDB1">
                                <rect id="Rectangle-4" x="0" y="0" width="16.2936044" height="4.64967034"></rect>
                            </g>
                            <g id="Rectangle-4-Copy-Clipped" transform="translate(19.000000, 15.000000)" fill="#FFFFFF" fill-rule="nonzero" stroke="#FECDB1">
                                <rect id="Rectangle-4-Copy" x="0" y="0" width="11.2647142" height="4.64967034"></rect>
                            </g>
                            <g id="Rectangle-2-Clipped">
                                <mask id="mask-7" fill="white">
                                    <use xlink:href="#path-6"></use>
                                </mask>
                                <g id="path-1"></g>
                                <rect id="Rectangle-2" fill="#EB8348" fill-rule="nonzero" mask="url(#mask-7)" x="0" y="1" width="8.44853563" height="55.7506861"></rect>
                            </g>
                        </g>
                        <polygon id="ribbon" fill="#EB8348" fill-rule="nonzero" points="26 0 36.3670573 0 36.3670573 22.9166529 31.1835286 19.7777964 26 22.9166529"></polygon>
                    </g>
                    <circle id="Oval-5" fill="#E16D2B" cx="274.5" cy="34.5" r="6.5"></circle>
                    <circle id="Oval-5" fill="#E16D2B" cx="72.5" cy="288.5" r="4.5"></circle>
                    <g id="pencil" transform="translate(242.000000, 150.000000)">
                        <path d="M5.1548092,6.89110921 C5.1548092,40.9447569 5.1548092,58.3507768 5.1548092,59.1091686 C5.1548092,60.2467565 4.70648137,60.701134 3.77860013,60.701134 C2.8507189,60.701134 2.21066246,60.701134 1.33871174,60.701134 C0.466761031,60.701134 0.0460512477,60.2997408 0.015350416,59.1091686 C-0.00511680533,58.315454 -0.00511680533,40.9094341 0.015350416,6.89110921 L0.0142187263,6.89059367 L2.58451396,1 L5.1548092,6.89059367 L5.1548092,6.89110921 Z" id="shadow" fill-opacity="0.5" fill="#5A4F4F" fill-rule="nonzero" style="mix-blend-mode: overlay;"></path>
                        <g id="Path-8" transform="translate(1.000000, 0.000000)">
                            <g id="Mask" fill="#FECDB1" fill-rule="nonzero">
                                <path d="M2.58451396,0 L0.0153504157,5.89110918 C-0.00511680525,39.9094341 -0.00511680525,57.315454 0.0153504157,58.1091685 C0.0460512477,59.2997407 0.46676103,59.701134 1.33871175,59.701134 C2.21066246,59.701134 2.8507189,59.701134 3.77860015,59.701134 C4.70648138,59.701134 5.15480918,59.2467565 5.15480918,58.1091685 C5.15480918,57.3507768 5.15480918,39.9447569 5.15480918,5.89110918 L2.58451396,0 Z" id="path-1"></path>
                            </g>
                            <g id="Clipped">
                                <mask id="mask-9" fill="white">
                                    <use xlink:href="#path-8"></use>
                                </mask>
                                <g id="path-1"></g>
                                <path d="M0,57.0767108 C0,57.8049731 0,58.8269183 0,58.9494115 C0,59.8322872 0.452542304,60.6980222 1.32449302,60.6980222 C2.19644373,60.6980222 2.83650017,60.6980222 3.76438142,60.6980222 C4.69226265,60.6980222 5.14059045,59.7780784 5.14059045,58.9494115 C5.14059045,58.8335359 5.14059045,57.8110909 5.14059045,57.0767108 C5.14059045,54.3098777 0,54.3056492 0,57.0767108 Z" id="Shape" fill="#FFFFFF" fill-rule="nonzero" mask="url(#mask-9)"></path>
                            </g>
                            <g id="Rectangle-Clipped">
                                <mask id="mask-11" fill="white">
                                    <use xlink:href="#path-10"></use>
                                </mask>
                                <g id="path-1"></g>
                                <polygon id="Rectangle" fill="#EB8348" fill-rule="nonzero" mask="url(#mask-11)" points="0 53 5.13925675 53 5.13925675 57.249252 0 57.249252"></polygon>
                            </g>
                            <g id="Clipped">
                                <mask id="mask-13" fill="white">
                                    <use xlink:href="#path-12"></use>
                                </mask>
                                <g id="path-1"></g>
                                <polygon id="Shape" fill="#C86329" fill-rule="nonzero" style="mix-blend-mode: overlay;" mask="url(#mask-13)" points="0 6 0 59.8105403 2.00586151 59.8105403 1.98098537 6.01011638"></polygon>
                            </g>
                        </g>
                        <polygon id="Path-8" fill="#FFFFFF" fill-rule="nonzero" points="3.57029522 0 1 5.89059364 6.14059045 5.89059364"></polygon>
                        <polygon id="Path-8" fill="#EB8348" fill-rule="nonzero" points="3.26357535 0 2 2.8958576 4.52543482 2.89192513"></polygon>
                    </g>
                </g>
            </g>
        </g>
    </g>
</svg>