<?xml version="1.0" encoding="UTF-8"?>
<svg width="380px" height="230px" viewBox="0 0 380 230" version="1.1" xmlns="http://www.w3.org/2000/svg" xmlns:xlink="http://www.w3.org/1999/xlink">
    <!-- Generator: Sketch 51 (57462) - http://www.bohemiancoding.com/sketch -->
    <title>Group 4</title>
    <desc>Created with Sketch.</desc>
    <defs>
        <rect id="path-1" x="0" y="0" width="379.831933" height="230"></rect>
        <linearGradient x1="23.0294912%" y1="77.174002%" x2="82.5936682%" y2="14.1565772%" id="linearGradient-3">
            <stop stop-color="#FAE1D1" offset="0%"></stop>
            <stop stop-color="#F4C0A5" offset="100%"></stop>
        </linearGradient>
        <ellipse id="path-4" cx="8.80024833" cy="8.8540818" rx="8.80024833" ry="8.8540818"></ellipse>
    </defs>
    <g id="Home-Page" stroke="none" stroke-width="1" fill="none" fill-rule="evenodd">
        <g id="Home-Page---Desktop" transform="translate(-522.000000, -1985.000000)">
            <rect fill="#FFFFFF" x="0" y="0" width="1024" height="3513"></rect>
            <g id="Group-18" transform="translate(121.000000, 1985.000000)">
                <g id="Group-14" transform="translate(401.000000, 0.000000)">
                    <g id="Group-4">
                        <g id="Oval-3">
                            <mask id="mask-2" fill="white">
                                <use xlink:href="#path-1"></use>
                            </mask>
                            <use id="Mask" fill="#FFDFCE" xlink:href="#path-1"></use>
                            <ellipse fill="url(#linearGradient-3)" mask="url(#mask-2)" cx="43.2773109" cy="185.606618" rx="80.2521008" ry="80.7536765"></ellipse>
                        </g>
                        <rect id="Rectangle-12" fill="#FABE9E" x="128.337731" y="141.22807" width="8.02110818" height="8.07017544"></rect>
                        <g id="Group" transform="translate(0.000000, 44.385965)">
                            <path d="M50.9111533,109.285961 L50.9111533,109.285961 C79.0286069,109.285961 101.822307,132.079661 101.822307,160.197115 L101.822307,185.395827 L0,185.395827 L0,160.197115 C-3.44339495e-15,132.079661 22.7936997,109.285961 50.9111533,109.285961 Z" id="Rectangle-2" fill="#E98E5F"></path>
                            <path d="M27.1526151,71.1423751 C24.9794133,70.9590922 18.0986918,69.7984837 18.0986918,62.4491208 C18.0986918,55.0997579 24.9794133,53.9391493 27.1526151,53.7558664 L27.1526151,32.2012808 C42.706065,32.2012808 53.9842997,32.2012808 60.9873191,32.2012808 C67.9903384,32.2012808 77.7950286,32.2012808 90.4013894,32.2012808 L90.4013894,72.7827366 C90.4013894,88.4683614 78.9816207,101.486756 64.0025927,103.977412 L64.0025927,113.189031 C61.9747328,117.087019 57.7725424,119.036013 51.3960214,119.036013 C45.0195005,119.036013 40.8173101,117.087019 38.7894501,113.189031 L38.7894501,96.9767362 C32.4804613,92.6316663 28.0639197,85.6321708 27.2753204,77.4099743 C27.1935636,76.5575508 27.1526151,75.7017055 27.1526151,74.8453703 C27.1526151,73.9640985 27.1526151,74.3473223 27.1526151,73.4660505 L27.1526151,71.1423751 Z" id="Combined-Shape" fill="#FFF7F3"></path>
                            <path d="M65.9420652,93.5652625 C75.6394278,93.5652625 75.6394278,84.8917735 75.6394278,84.8917735 C75.6394278,84.8917735 71.2977707,84.8917735 65.9420652,84.8917735 C60.5863598,84.8917735 56.2447027,84.8917735 56.2447027,84.8917735 C56.2447027,84.8917735 56.2447027,93.5652625 65.9420652,93.5652625 Z" id="Oval-2" fill="#E48452"></path>
                            <path d="M24.0601051,65.2778765 C28.9941499,65.2778765 28.9941499,59.792154 28.9941499,59.792154 C28.9941499,59.792154 26.7851028,59.792154 24.0601051,59.792154 C21.3351073,59.792154 19.1260602,59.792154 19.1260602,59.792154 C19.1260602,59.792154 19.1260602,65.2778765 24.0601051,65.2778765 Z" id="Oval-2" fill="#E48452" transform="translate(24.060105, 62.535015) rotate(90.000000) translate(-24.060105, -62.535015) "></path>
                            <ellipse id="Oval" fill="#E98E5F" cx="57.6993071" cy="61.961237" rx="4.36381314" ry="4.3909538"></ellipse>
                            <ellipse id="Oval" fill="#E98E5F" cx="82.9124497" cy="61.961237" rx="4.36381314" ry="4.3909538"></ellipse>
                            <path d="M70.7907465,61.4733533 L76.6101572,76.3545254 C77.1339716,77.6940003 76.472748,79.2044947 75.1332731,79.728309 C74.8310294,79.8465043 74.509356,79.9071643 74.1848234,79.9071643 C74.1848234,79.9071643 74.1848234,79.9071643 74.1848234,79.9071643 C73.6755882,79.9071643 73.2038234,79.828551 72.7695292,79.6713243 L72.769528,79.6713278 C71.5818779,79.2413653 70.7907465,78.1135735 70.7907465,76.8504897 L70.7907465,61.4733533 Z" id="Triangle-3" fill="#F2AC87"></path>
                            <path d="M28.1266129,60.3584626 C31.8745893,55.9725906 34.2495277,52.2785228 35.251428,49.2762594 C36.2533284,46.2739959 36.2533284,43.1075159 35.251428,39.7768196 C44.467204,43.4085445 52.9583939,45.1520301 60.7249978,45.0072765 C62.193105,44.979914 70.8879322,44.6692675 69.6055659,43.4216543 C67.10799,40.9917645 65.1263756,38.8096282 63.6607228,36.8752453 L95.4442073,43.4216543 C95.4442073,39.0148188 95.4442073,32.3607324 95.4442073,23.4593949 C95.4442073,10.1073887 82.721154,0.531717062 57.6083943,0.531717062 C47.5000006,0.531717062 39.7945026,1.13175963 29.5883198,8.63802002 C26.9722368,10.5620499 25.726132,13.2816206 25.8500055,16.7967324 C24.1617746,15.7659245 22.0104091,15.9438385 19.3959088,17.3304743 C14.2474995,20.0610034 16.3266245,35.6449327 16.8264392,42.6888757 C17.0631912,46.025448 17.9196811,51.0284005 19.3959088,57.6977333 C20.3593023,56.5991784 21.1033547,55.8776758 21.628066,55.5332256 C22.3135171,55.0832567 23.5282377,54.5571007 24.0373137,54.3779559 C25.1859701,53.9737415 26.5490699,53.7571161 28.1266129,53.7280795 L28.1266129,60.3584626 Z" id="Line-2" fill="#F07E44"></path>
                        </g>
                        <rect id="Rectangle-4" fill="#FFF7F3" x="220.580475" y="80.7017544" width="144.379947" height="149.298246"></rect>
                        <rect id="Rectangle-5" fill="#FABE9E" x="220.580475" y="77.6754386" width="144.379947" height="21.1842105"></rect>
                        <ellipse id="Oval-2" fill="#FABE9E" cx="252.664908" cy="131.140351" rx="17.0448549" ry="17.1491228"></ellipse>
                        <rect id="Rectangle-6" fill="#E48452" x="236.622691" y="160.394737" width="114.300792" height="27.2368421"></rect>
                        <rect id="Rectangle-6" fill="#FABE9E" x="236.622691" y="193.684211" width="34.0897098" height="27.2368421"></rect>
                        <rect id="Rectangle-6" fill="#FABE9E" x="275.725594" y="193.684211" width="34.0897098" height="27.2368421"></rect>
                        <rect id="Rectangle-6" fill="#FABE9E" x="316.833773" y="193.684211" width="34.0897098" height="27.2368421"></rect>
                        <rect id="Rectangle-7" fill="#E48452" x="275.725594" y="120.04386" width="27.0712401" height="8.07017544"></rect>
                        <rect id="Rectangle-7" fill="#FABE9E" x="275.725594" y="133.157895" width="58.1530343" height="8.07017544"></rect>
                        <g id="Group" transform="translate(121.319261, 28.245614)">
                            <path d="M30.2235099,77.4648599 L15.7790877,77.4648599 L20.3001747,72.2238584 C10.3357876,64.9828083 3.85046895,53.189772 3.85046895,39.8716191 C3.85046895,17.8511319 21.5799968,0 43.4504778,0 C65.3209588,0 83.0504867,17.8511319 83.0504867,39.8716191 C83.0504867,61.8921062 65.3209588,79.7432381 43.4504778,79.7432381 C38.8120113,79.7432381 34.3598103,78.9402707 30.2235099,77.4648599 Z" id="Combined-Shape" fill="#F4C0A5"></path>
                            <text id="Aa" font-family="Archivo-Bold, Archivo" font-size="32" font-weight="bold" letter-spacing="0.2" fill="#F18146">
                                <tspan x="34.0897098" y="72.5394737">Aa</tspan>
                            </text>
                            <rect id="Rectangle-8" fill="#E48452" x="0" y="6.05263158" width="33.9585645" height="34.1914809"></rect>
                            <polygon id="Triangle" fill="#FFF0E8" points="31.3261344 13.1140351 31.3261344 36.518441 12.0316623 36.518441"></polygon>
                        </g>
                        <path d="M333.433205,28.5338346 L380,28.5338346 L380,31.9924812 L333.433205,31.9924812 C332.743706,34.4854138 330.458881,36.3157895 327.746549,36.3157895 C324.488299,36.3157895 321.846966,33.6744561 321.846966,30.4162063 L321.846966,30.1101095 C321.846966,26.8518597 324.488299,24.2105263 327.746549,24.2105263 C330.458881,24.2105263 332.743706,26.040902 333.433205,28.5338346 Z" id="Combined-Shape" fill="#E48452"></path>
                        <path d="M311.39401,48.7092732 L380,48.7092732 L380,52.1679198 L311.39401,52.1679198 C310.700639,54.6613701 308.413617,56.4912281 305.699208,56.4912281 C302.435045,56.4912281 299.788918,53.845101 299.788918,50.5809378 L299.788918,50.2962551 C299.788918,47.032092 302.435045,44.3859649 305.699208,44.3859649 C308.413617,44.3859649 310.700639,46.2158229 311.39401,48.7092732 Z" id="Combined-Shape" fill="#E48452"></path>
                        <rect id="Rectangle-12" fill="#FABE9E" x="76.2005277" y="9.07894737" width="8.02110818" height="8.07017544"></rect>
                        <rect id="Rectangle-12" fill="#FABE9E" x="189.498681" y="187.631579" width="10.0263852" height="10.0877193"></rect>
                        <rect id="Rectangle-12" fill="#FABE9E" x="336.886544" y="63.5526316" width="7.01846966" height="7.06140351"></rect>
                        <rect id="Rectangle-12" fill="#FABE9E" x="295.778364" y="25.2192982" width="10.0263852" height="10.0877193"></rect>
                        <rect id="Rectangle-12" fill="#FABE9E" x="351.926121" y="14.122807" width="7.01846966" height="7.06140351"></rect>
                        <rect id="Rectangle-12" fill="#FABE9E" x="12.0316623" y="12.1052632" width="7.01846966" height="7.06140351"></rect>
                        <g id="Group-2" transform="translate(2.005277, 8.070175)">
                            <polyline id="Line-3" stroke="#E48452" stroke-width="4" stroke-linecap="square" points="0 18.9794922 37.1648042 18.9794922 49.2403725 6.47073185"></polyline>
                            <rect id="Rectangle-10" fill="#E48452" x="43.6642579" y="0" width="11.7557617" height="11.8382353" rx="5.87788087"></rect>
                        </g>
                        <g id="Group-3" transform="translate(0.000000, 25.219298)">
                            <rect id="Rectangle-10" fill="#E48452" x="58.6248642" y="0" width="11.7249728" height="12.4613003" rx="5.86248642"></rect>
                            <polygon id="Line-3" stroke="#E48452" stroke-width="4" stroke-linecap="square" transform="translate(32.337730, 6.616357) scale(1, -1) translate(-32.337730, -6.616357) " points="0 6.1119711 32.814548 6.1119711 64.6754605 6.1119711"></polygon>
                        </g>
                        <g id="ruler" transform="translate(181.477573, 31.271930)" fill-rule="nonzero">
                            <path d="M31.8631629,27.6055482 L27.4377045,32.0580784 C27.1611016,32.3363734 26.6632289,32.3363734 26.3866887,32.0580784 L0.331936016,5.84394189 C-0.110603562,5.39869518 -0.110603562,4.73082511 0.331936016,4.2855784 L4.2594591,0.333966557 C4.70199868,-0.111280154 5.36580805,-0.111280154 5.80834763,0.333966557 L31.8631003,26.5481031 C32.1397658,26.826398 32.1397658,27.3272533 31.8631629,27.6055482" id="Shape" fill="#E48452"></path>
                            <g id="Group" transform="translate(1.065303, 4.098136)">
                                <path d="M25.8745284,21.8933772 C25.5979255,21.8933772 25.3213226,22.0047204 25.1000528,22.2273437 C24.878783,22.4499671 24.7681168,22.7282621 24.7681168,23.006557 C24.7681168,23.284852 24.878783,23.5631469 25.1000528,23.7857703 C25.5425923,24.231017 26.2064017,24.231017 26.6489413,23.7857703 C27.0914809,23.3405236 27.0914809,22.6726535 26.6489413,22.2274068 C26.4277342,22.0047204 26.1511313,21.8933772 25.8745284,21.8933772 M25.8745284,25.177119 C25.3213226,25.177119 24.7681794,24.9544956 24.3256398,24.5092489 C23.8831003,24.0640022 23.6618305,23.5074123 23.6618305,22.9508854 C23.6618305,22.338687 23.8831003,21.782097 24.3256398,21.3925219 C25.210719,20.5020285 26.5936708,20.5020285 27.4234169,21.3925219 C28.308496,22.2830154 28.308496,23.6744271 27.4234169,24.5092489 C26.98094,25.0101672 26.4277342,25.177119 25.8745284,25.177119" id="Shape" fill="#FFF7F3"></path>
                                <path d="M21.1725297,19.0549452 L18.8491656,21.3925219 L19.6236412,22.1717352 L21.9470053,19.8341584 C22.1682751,19.6115351 22.1682751,19.2775685 21.9470053,19.0549452 C21.7257355,18.8323218 21.3937995,18.8323218 21.1725297,19.0549452" id="Shape" fill="#FFF0E8"></path>
                                <path d="M18.7938325,18.2757319 L17.2449439,19.8340954 L18.0194195,20.6133087 L19.568308,19.0549452 C19.7895778,18.8323218 19.7895778,18.4983553 19.568308,18.2757319 C19.4023714,18.0531086 19.0151022,18.0531086 18.7938325,18.2757319" id="Shape" fill="#FFF0E8"></path>
                                <path d="M18.0194195,15.8824836 L15.6960554,18.2200603 L16.470531,18.9992736 L18.7938951,16.6616968 C19.0151649,16.4390735 19.0151649,16.1051069 18.7938951,15.8824836 C18.5725627,15.7155318 18.2406893,15.7155318 18.0194195,15.8824836" id="Shape" fill="#FFF0E8"></path>
                                <path d="M15.6960554,15.1033333 L14.1471669,16.6616968 L14.9216425,17.4409101 L16.470531,15.8825466 C16.6918008,15.6599232 16.6918008,15.3259567 16.470531,15.1033333 C16.2492612,14.88071 15.9173252,14.88071 15.6960554,15.1033333" id="Shape" fill="#FFF0E8"></path>
                                <path d="M14.9215798,12.7657566 L12.5982157,15.1033333 L13.3726913,15.8824836 L15.6960554,13.5449068 C15.9173252,13.3222834 15.9173252,12.9883169 15.6960554,12.7656935 C15.4747856,12.5430702 15.1428496,12.5431332 14.9215798,12.7657566" id="Shape" fill="#FFF0E8"></path>
                                <path d="M12.5429453,11.9865433 L10.9940567,13.5449068 L11.7685323,14.3241201 L13.3174208,12.7657566 C13.5386906,12.5431332 13.5386906,12.2091667 13.3174208,11.9865433 C13.1514215,11.76392 12.764215,11.76392 12.5429453,11.9865433" id="Shape" fill="#FFF0E8"></path>
                                <path d="M11.7684697,9.593358 L9.44510554,11.9866064 L10.2195811,12.7658196 L12.5429453,10.4282429 C12.764215,10.2056195 12.764215,9.87165296 12.5429453,9.64902961 C12.3216755,9.37073465 11.9897394,9.37073465 11.7684697,9.593358" id="Shape" fill="#FFF0E8"></path>
                                <path d="M9.44510554,8.81414474 L7.84088391,10.3725082 L8.6153595,11.1517215 L10.164248,9.593358 C10.3855178,9.37073465 10.3855178,9.03676809 10.164248,8.81414474 C9.99831135,8.59152138 9.66637533,8.59152138 9.44510554,8.81414474" id="Shape" fill="#FFF0E8"></path>
                                <path d="M8.67069261,6.47656798 L6.3473285,8.81414474 L7.12180409,9.593358 L9.44516821,7.25578125 C9.66643799,7.03315789 9.66643799,6.69919134 9.44516821,6.47656798 C9.22383575,6.25394463 8.83662929,6.25394463 8.67069261,6.47656798" id="Shape" fill="#FFF0E8"></path>
                                <path d="M6.29199538,5.69741776 L4.74310686,7.25578125 L5.51758245,8.03499452 L7.06647098,6.47663103 C7.28774077,6.25400768 7.28774077,5.92004112 7.06647098,5.69741776 C6.84513852,5.47473136 6.51326517,5.47473136 6.29199538,5.69741776" id="Shape" fill="#FFF0E8"></path>
                                <path d="M5.51751979,3.30416941 L3.19415567,5.64174616 L3.96863127,6.47656798 L6.29199538,4.13899123 C6.51326517,3.91636787 6.51326517,3.58240132 6.29199538,3.35977796 C6.07072559,3.08154605 5.73878958,3.08154605 5.51751979,3.30416941" id="Shape" fill="#FFF0E8"></path>
                                <path d="M2.36440963,4.86253289 L3.91329815,3.30416941 C4.13456794,3.08154605 4.13456794,2.7475795 3.91329815,2.52495614 C3.69202836,2.30233279 3.36009235,2.30233279 3.13882256,2.52495614 L1.58993404,4.08331963 L2.36440963,4.86253289 Z" id="Shape" fill="#FFF0E8"></path>
                                <path d="M0.815521108,3.30416941 L3.13888522,0.966592654 C3.36015501,0.743969298 3.36015501,0.354394189 3.19421834,0.187379386 C2.97294855,-0.0352439693 2.64101253,-0.0352439693 2.41974274,0.187379386 L0.0410455145,2.52495614 L0.815521108,3.30416941 Z" id="Shape" fill="#FFF0E8"></path>
                            </g>
                        </g>
                        <g id="edit" transform="translate(182.480211, 32.280702)" fill-rule="nonzero">
                            <path d="M1.94877747,28.3493447 C2.22932681,28.6313165 2.22932681,29.0870868 1.94877747,29.3690586 L1.69190622,29.6272323 L5.84848497,28.4878065 L1.81101412,24.4298644 L0.6773365,28.6067972 L0.934207757,28.3486235 C1.21475709,28.0673729 1.66894566,28.0673729 1.94877747,28.3493447 Z" id="Shape" fill="#FFF7F3"></path>
                            <path d="M1.69190622,29.6272323 L1.94877747,29.3690586 C2.22932681,29.0870868 2.22932681,28.6313165 1.94877747,28.3493447 C1.66822814,28.0673729 1.21475709,28.0673729 0.934207757,28.3493447 L0.6773365,28.6075184 L0.297052236,30.0094447 L1.69190622,29.6272323 Z" id="Shape" fill="#E48452"></path>
                            <polygon id="Shape" fill="#F2AC87" points="25.1575978 9.10242499 21.099319 5.0228482 1.81962433 24.4002971 1.81101412 24.4298644 5.84848497 28.4878065 5.87790319 28.4798738"></polygon>
                            <path d="M29.7317718,2.48077499 L27.686847,0.425481757 C27.1307709,-0.133413771 26.2288514,-0.133413771 25.6727754,0.425481757 L23.1284584,2.98269924 L27.1874548,7.06227602 L29.7317718,4.50505854 C30.2878478,3.94616301 30.2878478,3.03967052 29.7317718,2.48077499 Z" id="Shape" fill="#E48452"></path>
                            <rect id="Rectangle-path" fill="#F7E6A1" transform="translate(22.469116, 4.360792) rotate(-45.000000) translate(-22.469116, -4.360792) " x="21.0340943" y="3.85640555" width="2.87004239" height="1"></rect>
                            <rect id="Rectangle-path" fill="#FFF7F3" transform="translate(24.143035, 6.042196) rotate(45.000000) translate(-24.143035, -6.042196) " x="21.2729928" y="4.59989834" width="5.74008478" height="2.88459442"></rect>
                        </g>
                        <g id="computer-mouse-cursor" transform="translate(158.416887, 187.631579)" fill="#E48452" fill-rule="nonzero">
                            <path d="M8.00864356,5.15553529 C8.02801271,5.00612241 7.96345646,4.85022129 7.83432118,4.77227073 L0.596706644,0.0627501994 C0.480491725,-0.0152003589 0.325538498,-0.0216885965 0.20287479,0.0497507974 C0.0802110818,0.121213118 0.0027344687,0.251115431 0.0027344687,0.394040072 L0.0027344687,8.7217504 C0.0027344687,8.87116328 0.0866598705,9.00106559 0.215795155,9.07252791 C0.344930439,9.13747907 0.506332454,9.12450259 0.622547373,9.03355263 L2.67567762,7.48754087 L4.55448549,10.4496621 C4.62551331,10.5665879 4.75462581,10.6315391 4.88376109,10.6315391 C4.94831734,10.6315391 5.01934517,10.6120514 5.07745263,10.5795644 L6.9949988,9.4622807 C7.08539578,9.41030602 7.14995203,9.31937899 7.17576997,9.21542963 C7.20158791,9.11150319 7.18221876,9.00106559 7.1241113,8.91662679 L5.37443871,6.14289374 L7.73747541,5.47382576 C7.87950828,5.42836224 7.98927441,5.30492524 8.00864356,5.15553529 Z" id="Shape"></path>
                        </g>
                        <rect id="Rectangle-13" stroke="#E48452" fill="#FFF7F3" x="147.887863" y="138.701754" width="34.0923483" height="43.3859649"></rect>
                        <g id="Pie-chart" transform="translate(157.414248, 143.245614)">
                            <mask id="mask-5" fill="white">
                                <use xlink:href="#path-4"></use>
                            </mask>
                            <use id="Mask" fill="#F18146" xlink:href="#path-4"></use>
                            <rect id="Rectangle" fill="#F4C3A9" mask="url(#mask-5)" x="8.80024833" y="0" width="8.80024833" height="8.8540818"></rect>
                            <rect id="Rectangle" fill="#F18146" mask="url(#mask-5)" x="8.80024833" y="8.8540818" width="8.80024833" height="8.8540818"></rect>
                        </g>
                        <rect id="Rectangle-13" stroke="#E48452" fill="#FFF7F3" x="113.798153" y="170.982456" width="30.0817942" height="36.3245614"></rect>
                        <g id="Bar-chart" transform="translate(157.414248, 165.438596)">
                            <rect id="Rectangle" fill="#F4C3A9" x="9.04010215" y="0" width="2.26002554" height="12.3386855" rx="1"></rect>
                            <rect id="Rectangle" fill="#F18146" x="4.52005107" y="2.24339736" width="2.26002554" height="10.0952881" rx="1"></rect>
                            <rect id="Rectangle" fill="#F18146" x="13.5601532" y="4.48679472" width="2.26002554" height="7.85189076" rx="1"></rect>
                            <rect id="Rectangle" fill="#F4C3A9" x="0" y="6.73019208" width="2.26002554" height="5.6084934" rx="1"></rect>
                        </g>
                        <rect id="Rectangle-14" fill="#F18146" x="117.308707" y="175.526316" width="7.01846966" height="7.06140351"></rect>
                        <rect id="Rectangle-14" fill="#F4C3A9" x="125.329815" y="176.535088" width="14.0369393" height="3.02631579"></rect>
                        <rect id="Rectangle-14" fill="#F18146" x="117.308707" y="185.614035" width="7.01846966" height="7.06140351"></rect>
                        <rect id="Rectangle-14" fill="#F4C3A9" x="125.329815" y="187.631579" width="14.0369393" height="3.02631579"></rect>
                        <rect id="Rectangle-14" fill="#F18146" x="117.308707" y="194.692982" width="7.01846966" height="7.06140351"></rect>
                        <rect id="Rectangle-14" fill="#F4C3A9" x="125.329815" y="196.710526" width="14.0369393" height="3.02631579"></rect>
                    </g>
                </g>
            </g>
        </g>
    </g>
</svg>