<?xml version="1.0" encoding="UTF-8"?>
<svg width="121px" height="34px" viewBox="0 0 121 34" version="1.1" xmlns="http://www.w3.org/2000/svg" xmlns:xlink="http://www.w3.org/1999/xlink">
    <!-- Generator: Sketch 51 (57462) - http://www.bohemiancoding.com/sketch -->
    <title>Group 3</title>
    <desc>Created with Sketch.</desc>
    <defs></defs>
    <g id="Symbols" stroke="none" stroke-width="1" fill="none" fill-rule="evenodd">
        <g id="Footer---Desktop" transform="translate(0.000000, -198.000000)" stroke="#F8EDE7" stroke-width="1.5">
            <g id="Group-9">
                <g id="Group-3">
                    <g transform="translate(37.300000, 215.000000) scale(-1, 1) translate(-37.300000, -215.000000) translate(-45.200000, 199.000000)">
                        <polyline id="Shape" points="5.2 13.3254722 20.8 27.2 37.4578606 13.3254722 53.7704019 26.3628597 70.9525139 12.8834245 86.612712 25.920812 102.925253 12 119.020567 25.6994528 134.245649 12.2206884 150.558191 25.6994528 160 18.8037776"></polyline>
                        <polyline id="Shape" points="0 13.6 20.8 32 37.4578606 18.1254722 53.7704019 31.1628597 70.9525139 17.6840953 86.612712 30.720812 102.925253 16.8 119.020567 30.5001236 134.245649 17.0206884 150.558191 30.5001236 160 23.6037776"></polyline>
                        <path d="M53.2,11.2 L55.8,13.8001628 L58.4,16.3996743 L55.8,18.9998372 L53.2,21.6 L50.6,18.9998372 L48,16.3996743 C48.8668838,15.5333876 49.7331162,14.6664496 50.6,13.8001628 L53.2,11.2 Z M53.2,12.6114611 L55.093988,14.5055677 L56.987976,16.3996743 L55.093988,18.2937809 L53.2,20.1885389 L51.306012,18.2937809 L49.4113727,16.3996743 C50.0431363,15.7685226 50.6742485,15.1373708 51.306012,14.5055677 L53.2,12.6114611 Z" id="Shape"></path>
                        <path d="M52,1.08872507 C51.5044406,0.460149357 51.0095401,-0.168426354 50.1601038,0.0410988828 C49.3106675,0.25062412 48.1080132,1.2982503 48.4506873,2.4636531 C48.7933614,3.62840519 50.6826818,4.91028319 51.3897765,6.37761055 C52.0975303,7.84493791 51.6243765,9.49771462 50.5561559,10.6214726 C49.4872764,11.74458 47.8246481,12.3386686 46.2859097,11.7972866 C44.7465123,11.255254 43.3310047,9.57840136 42.0578387,9.01945049 C40.7840137,8.46049963 39.6518713,9.01945049 39.3157871,9.66624579 C38.9790439,10.3123904 39.439018,11.0457287 39.899651,11.7797177" id="Shape"></path>
                        <path d="M54.4,1.08872507 C54.8955734,0.460149357 55.3904878,-0.168426354 56.2399481,0.0410988828 C57.0894083,0.25062412 58.2920964,1.2982503 57.9494127,2.4636531 C57.6060699,3.62840519 55.7173554,4.91028319 55.0095816,6.37761055 C54.3018079,7.84493791 54.7756341,9.49771462 55.8438847,10.6214726 C56.9121354,11.74458 58.5754695,12.3386686 60.1142513,11.7972866 C61.6536921,11.255254 63.0685805,9.57840136 64.3424414,9.01945049 C65.6163022,8.46049963 66.7484766,9.01945049 67.0845702,9.66624579 C67.4206639,10.3123904 66.9606769,11.0457287 66.5006899,11.7797177" id="Shape"></path>
                        <circle id="Oval" cx="53.2" cy="3.6" r="1.2"></circle>
                        <path d="M60.3506369,7.2 C60.3506369,7.2 59.2144176,3.41015094 61.0326489,3.21013455 C62.8501792,3.01073359 63.0772829,5.80357786 60.3506369,7.2 Z" id="Shape"></path>
                        <path d="M46.8496094,7.2 C46.8496094,7.2 47.9852643,3.41015094 46.1675155,3.21013455 C44.3497667,3.01073359 44.1226357,5.80357786 46.8496094,7.2 Z" id="Shape"></path>
                        <path d="M85.9996743,11.2 L88.5998372,13.8001628 L91.2,16.3996743 L88.5998372,18.9998372 L85.9996743,21.6 L83.4001628,18.9998372 L80.8,16.3996743 C81.6662867,15.5333876 82.5332248,14.6664496 83.4001628,13.8001628 L85.9996743,11.2 Z M85.9996743,12.6114611 L87.8944323,14.5055677 L89.7885389,16.3996743 L87.8944323,18.2937809 L85.9996743,20.1885389 L84.1055677,18.2937809 L82.2114611,16.3996743 C82.8426129,15.7685226 83.474416,15.1373708 84.1055677,14.5055677 L85.9996743,12.6114611 Z" id="Shape"></path>
                        <path d="M85.6,1.08872507 C85.1050856,0.460149357 84.6095122,-0.168426354 83.7600519,0.0410988828 C82.9112507,0.25062412 81.7079036,1.2982503 82.0505873,2.4636531 C82.3939301,3.62840519 84.2826446,4.91028319 84.9904184,6.37761055 C85.6975331,7.84493791 85.2243659,9.49771462 84.1561153,10.6214726 C83.0878646,11.74458 81.4251895,12.3386686 79.8857487,11.7972866 C78.3469669,11.255254 76.9314195,9.57840136 75.6575586,9.01945049 C74.3836978,8.46049963 73.2515234,9.01945049 72.9154298,9.66624579 C72.5793361,10.3123904 73.0393231,11.0457287 73.4993101,11.7797177" id="Shape"></path>
                        <path d="M88,1.08872507 C88.4949144,0.460149357 88.9904878,-0.168426354 89.839289,0.0410988828 C90.6887493,0.25062412 91.8914374,1.2982503 91.5487537,2.4636531 C91.2060699,3.62840519 89.3173554,4.91028319 88.6095816,6.37761055 C87.9018079,7.84493791 88.3756341,9.49771462 89.4438847,10.6214726 C90.5121354,11.74458 92.1748105,12.3386686 93.7142513,11.7972866 C95.2530331,11.255254 96.6685805,9.57840136 97.9424414,9.01945049 C99.2163022,8.46049963 100.347818,9.01945049 100.68457,9.66624579 C101.020664,10.3123904 100.560677,11.0457287 100.10069,11.7797177" id="Shape"></path>
                        <circle id="Oval" cx="86.8" cy="3.6" r="1.2"></circle>
                        <path d="M93.950831,7.2 C93.950831,7.2 92.8143722,3.41015094 94.6322856,3.21013455 C96.4501991,3.01073359 96.6773506,5.80357786 93.950831,7.2 Z" id="Shape"></path>
                        <path d="M80.4492092,7.2 C80.4492092,7.2 81.5855376,3.41015094 79.7678328,3.21013455 C77.949427,3.01073359 77.7230026,5.80357786 80.4492092,7.2 Z" id="Shape"></path>
                        <path d="M120.400326,11.2 L122.999837,13.8001628 L125.6,16.3996743 L122.999837,18.9998372 L120.400326,21.6 L117.800163,18.9998372 L115.2,16.3996743 C116.066938,15.5333876 116.933225,14.6664496 117.800163,13.8001628 L120.400326,11.2 Z M120.400326,12.6114611 L122.294432,14.5055677 L124.188539,16.3996743 L122.294432,18.2937809 L120.400326,20.1885389 L118.505568,18.2937809 L116.611461,16.3996743 C117.243264,15.7685226 117.874416,15.1373708 118.505568,14.5055677 L120.400326,12.6114611 Z" id="Shape"></path>
                        <path d="M120,1.08872507 C119.505086,0.460149357 119.009512,-0.168426354 118.160711,0.0410988828 C117.311251,0.25062412 116.108563,1.2982503 116.451246,2.4636531 C116.79393,3.62840519 118.683304,4.91028319 119.390418,6.37761055 C120.098192,7.84493791 119.625025,9.49771462 118.556115,10.6214726 C117.487865,11.74458 115.825189,12.3386686 114.285749,11.7972866 C112.746967,11.255254 111.33142,9.57840136 110.057559,9.01945049 C108.784357,8.46049963 107.652182,9.01945049 107.31543,9.66624579 C106.979336,10.3123904 107.439323,11.0457287 107.89931,11.7797177" id="Shape"></path>
                        <circle id="Oval" cx="120.4" cy="3.6" r="1.2"></circle>
                        <path d="M114.049169,7.2 C114.049169,7.2 115.185628,3.41015094 113.367714,3.21013455 C111.549801,3.01073359 111.322649,5.80357786 114.049169,7.2 Z" id="Shape"></path>
                        <path d="M21.2003257,11.2 L23.8004885,13.8001628 L26.4,16.3996743 L23.8004885,18.9998372 L21.2003257,21.6 L18.6001628,18.9998372 L16,16.3996743 C16.8669381,15.5333876 17.7332248,14.6664496 18.6001628,13.8001628 L21.2003257,11.2 Z M21.2003257,12.6114611 L23.0944323,14.5055677 L24.9885389,16.3996743 L23.0944323,18.2937809 L21.2003257,20.1885389 L19.3055677,18.2937809 L17.4114611,16.3996743 C18.0426129,15.7685226 18.674416,15.1373708 19.3055677,14.5055677 L21.2003257,12.6114611 Z" id="Shape"></path>
                        <path d="M20.8,1.08872507 C20.3050853,0.460149357 19.8101705,-0.168426354 18.9607096,0.0410988828 C18.1112488,0.25062412 16.9085598,1.2982503 17.2512438,2.4636531 C17.5939278,3.62840519 19.4826437,4.91028319 20.1904179,6.37761055 C20.8981921,7.84493791 20.4243656,9.49771462 19.3567732,10.6214726 C18.2878628,11.74458 16.6251865,12.3386686 15.0857447,11.7972866 C13.5469618,11.255254 12.1314134,9.57840136 10.8575516,9.01945049 C9.58368979,8.46049963 8.45217365,9.01945049 8.11542074,9.66624579 C7.77932684,10.3123904 8.23931418,11.0457287 8.69996053,11.7797177" id="Shape"></path>
                        <path d="M23.2,1.08872507 C23.6955734,0.460149357 24.1904878,-0.168426354 25.0399481,0.0410988828 C25.8887493,0.25062412 27.0920964,1.2982503 26.7494127,2.4636531 C26.4060699,3.62840519 24.5173554,4.91028319 23.8095816,6.37761055 C23.1024669,7.84493791 23.5756341,9.49771462 24.6438847,10.6214726 C25.7121354,11.74458 27.3748105,12.3386686 28.9142513,11.7972866 C30.4530331,11.255254 31.8685805,9.57840136 33.1424414,9.01945049 C34.4163022,8.46049963 35.5484766,9.01945049 35.8845702,9.66624579 C36.2206639,10.3123904 35.7606769,11.0457287 35.3006899,11.7797177" id="Shape"></path>
                        <circle id="Oval" cx="22" cy="3.6" r="1.2"></circle>
                        <path d="M29.150831,7.2 C29.150831,7.2 28.0143722,3.41015094 29.8322856,3.21013455 C31.6501991,3.01073359 31.8773506,5.80357786 29.150831,7.2 Z" id="Shape"></path>
                        <path d="M15.649169,7.2 C15.649169,7.2 16.7856278,3.41015094 14.9677144,3.21013455 C13.1498009,3.01073359 12.9226494,5.80357786 15.649169,7.2 Z" id="Shape"></path>
                    </g>
                </g>
            </g>
        </g>
    </g>
</svg>