<?xml version="1.0" encoding="UTF-8"?>
<svg width="121px" height="33px" viewBox="0 0 121 33" version="1.1" xmlns="http://www.w3.org/2000/svg" xmlns:xlink="http://www.w3.org/1999/xlink">
    <!-- Generator: Sketch 51 (57462) - http://www.bohemiancoding.com/sketch -->
    <title>Group</title>
    <desc>Created with Sketch.</desc>
    <defs></defs>
    <g id="Symbols" stroke="none" stroke-width="1" fill="none" fill-rule="evenodd">
        <g id="Footer---Desktop" stroke="#F8EDE7" stroke-width="1.5">
            <g id="Group-9">
                <g id="Group-3">
                    <g id="Group" transform="translate(-15.000000, 0.000000)">
                        <polyline id="Shape" points="0 14.2180392 16.14656 1.24047059 31.9584 13.4349804 48.61312 0.826352941 63.79264 13.0214902 79.60448 0 95.20576 12.8150588 109.96352 0.207058824 125.77536 12.8150588 134.92736 6.36423529"></polyline>
                        <polyline id="Shape" points="0 18.3956078 16.14656 5.41741176 31.9584 17.6119216 48.61312 5.00392157 63.79264 17.1984314 79.60448 4.17694118 95.20576 16.992 109.96352 4.38337255 125.77536 16.992 134.92736 10.5411765"></polyline>
                        <ellipse id="Oval" cx="16.3296" cy="23.2734118" rx="1.05344" ry="1.83654902"></ellipse>
                        <path d="M19.2512,19.2112941 C22.36288,17.3803922 22.98496,21.2442353 19.45856,24.294902 C15.93216,27.3455686 18.42112,35.8876863 26.92672,28.7692549" id="Shape"></path>
                        <path d="M23.632,25.312 C23.632,25.312 22.5952,21.4481569 24.25472,21.2448627 C25.91424,21.0415686 26.1216,23.8883137 23.632,25.312 Z" id="Shape"></path>
                        <path d="M45.64992,18.8680784 C42.53824,17.0378039 41.91552,20.9016471 45.44192,23.9523137 C48.96896,27.0029804 46.47936,35.545098 37.9744,28.4266667" id="Shape"></path>
                        <path d="M40.87872,24.9694118 C40.87872,24.9694118 41.91616,21.1055686 40.25664,20.9022745 C38.59648,20.6983529 38.38912,23.5457255 40.87872,24.9694118 Z" id="Shape"></path>
                        <ellipse id="Oval" cx="48.65792" cy="22.9308235" rx="1.05344" ry="1.83654902"></ellipse>
                        <path d="M51.57952,18.8680784 C54.6912,17.0378039 55.31392,20.9016471 51.78752,23.9523137 C48.26048,27.0029804 50.75008,35.545098 59.25504,28.4266667" id="Shape"></path>
                        <path d="M55.96032,24.9694118 C55.96032,24.9694118 54.92352,21.1055686 56.58304,20.9022745 C58.24256,20.6983529 58.44992,23.5457255 55.96032,24.9694118 Z" id="Shape"></path>
                        <path d="M77.71008,17.3502745 C74.5984,15.52 73.97568,19.3838431 77.50208,22.4345098 C81.02912,25.4851765 78.53952,34.0266667 70.03456,26.9088627" id="Shape"></path>
                        <path d="M72.93888,23.4509804 C72.93888,23.4509804 73.97632,19.5871373 72.31616,19.3838431 C70.65664,19.180549 70.44928,22.0279216 72.93888,23.4509804 Z" id="Shape"></path>
                        <ellipse id="Oval" cx="80.71808" cy="21.4123922" rx="1.05344" ry="1.83654902"></ellipse>
                        <path d="M83.63968,17.3502745 C86.75136,15.52 87.37408,19.3838431 83.84704,22.4345098 C80.32064,25.4851765 82.81024,34.0266667 91.3152,26.9088627" id="Shape"></path>
                        <path d="M88.02048,23.4509804 C88.02048,23.4509804 86.98368,19.5871373 88.6432,19.3838431 C90.30272,19.180549 90.51008,22.0279216 88.02048,23.4509804 Z" id="Shape"></path>
                        <path d="M108.02816,17.3502745 C104.91648,15.52 104.2944,19.3838431 107.8208,22.4345098 C111.3472,25.4851765 108.85824,34.0266667 100.35264,26.9088627" id="Shape"></path>
                        <path d="M103.25696,23.4509804 C103.25696,23.4509804 104.2944,19.5871373 102.63488,19.3838431 C100.97536,19.180549 100.768,22.0279216 103.25696,23.4509804 Z" id="Shape"></path>
                        <ellipse id="Oval" cx="111.03616" cy="21.4123922" rx="1.05344" ry="1.83654902"></ellipse>
                        <path d="M113.9584,17.3502745 C117.06944,15.52 117.69216,19.3838431 114.16576,22.4345098 C110.63936,25.4851765 113.12832,34.0266667 121.63328,26.9088627" id="Shape"></path>
                        <path d="M118.3392,23.4509804 C118.3392,23.4509804 117.30176,19.5871373 118.96128,19.3838431 C120.62144,19.180549 120.82816,22.0279216 118.3392,23.4509804 Z" id="Shape"></path>
                    </g>
                </g>
            </g>
        </g>
    </g>
</svg>