<?xml version="1.0" encoding="UTF-8"?>
<svg width="18px" height="22px" viewBox="0 0 18 22" version="1.1" xmlns="http://www.w3.org/2000/svg" xmlns:xlink="http://www.w3.org/1999/xlink">
    <!-- Generator: Sketch 55.2 (78181) - https://sketchapp.com -->
    <title>Icon / Hourglass</title>
    <desc>Created with Sketch.</desc>
    <g id="Components" stroke="none" stroke-width="1" fill="none" fill-rule="evenodd">
        <g id="Text-&amp;-Icons" transform="translate(-755.000000, -3905.000000)" fill="#1A1A1A" fill-rule="nonzero">
            <g id="Icons" transform="translate(80.000000, 3484.000000)">
                <g id="Icon-/-Hourglass" transform="translate(672.000000, 420.000000)">
                    <path d="M13.8226342,12 L18.8083476,15.129619 C20.1774252,15.9890128 21,17.3937101 21,18.9012132 L21,21.1304348 C21,22.1819155 20.0690937,23 18.961039,23 L5.03896104,23 C3.93090635,23 3,22.1819155 3,21.1304348 L3,18.9012132 C3,17.3937101 3.82257485,15.9890128 5.19165236,15.129619 L10.1773658,12 L5.19165236,8.87038097 C3.82257485,8.01098721 3,6.60628994 3,5.09878682 L3,2.86956522 C3,1.81808455 3.93090635,1 5.03896104,1 L18.961039,1 C20.0690937,1 21,1.81808455 21,2.86956522 L21,5.09878682 C21,6.60628994 20.1774252,8.01098721 18.8083476,8.87038097 L13.8226342,12 Z M11.450427,15.2184049 C11.7920061,15.0083578 12.2113379,15.0083578 12.552917,15.2184049 L16.4416616,17.6097093 C17.4309038,18.2180237 17.0297774,19.8434783 15.8904166,19.8434783 L8.11292743,19.8434783 C6.97356662,19.8434783 6.57244019,18.2180237 7.5616824,17.6097093 L11.450427,15.2184049 Z M6.28896525,16.729015 C5.4737633,17.2407315 5,18.0497691 5,18.9012132 L5,21.1250799 C5,21.0874302 5.00112679,21.0869565 5.03896104,21.0869565 L18.961039,21.0869565 C18.9988732,21.0869565 19,21.0874302 19,21.1250799 L19,18.9012132 C19,18.0497691 18.5262367,17.2407315 17.7110348,16.729015 L12,13.1440992 L6.28896525,16.729015 Z M17.7110348,7.27098497 C18.5262367,6.75926853 19,5.95023089 19,5.09878682 L19,2.87492012 C19,2.91256984 18.9988732,2.91304348 18.961039,2.91304348 L5.03896104,2.91304348 C5.00112679,2.91304348 5,2.91256984 5,2.87492012 L5,5.09878682 C5,5.95023089 5.4737633,6.75926853 6.28896525,7.27098497 L12,10.8559008 L17.7110348,7.27098497 Z" id="Style"></path>
                </g>
            </g>
        </g>
    </g>
</svg>